/* XPM */
static char *YmFjaw__[] = {
/* columns rows colors chars-per-pixel */
"32 32 222 2 ",
"   c #12161F",
".  c #2C1A18",
"X  c #0A0E2B",
"o  c #061A38",
"O  c #121C33",
"+  c #13153A",
"@  c #1C172E",
"#  c #241C22",
"$  c #301B2C",
"%  c #0E232F",
"&  c #032C3D",
"*  c #092C3C",
"=  c #07273A",
"-  c #172538",
";  c #02333C",
":  c #0C303E",
">  c #153639",
",  c #16292D",
"<  c #2A2B26",
"1  c #3C3326",
"2  c #2E2F3A",
"3  c #49301C",
"4  c #55311B",
"5  c #4F3B20",
"6  c #433F37",
"7  c #613D27",
"8  c #724710",
"9  c #554539",
"0  c #564635",
"q  c #5B4D24",
"w  c #704F24",
"e  c #715023",
"r  c #6A4A36",
"t  c #745632",
"y  c #042B44",
"u  c #0A2C45",
"i  c #052D4A",
"p  c #0B2D4C",
"a  c #082743",
"s  c #122C42",
"d  c #152A49",
"f  c #043345",
"g  c #05334A",
"h  c #09334D",
"j  c #033B4F",
"k  c #0B3B4E",
"l  c #083442",
"z  c #18374A",
"x  c #012D53",
"c  c #0E2D52",
"v  c #082F5A",
"b  c #112C55",
"n  c #043353",
"m  c #0B3454",
"M  c #033B55",
"N  c #0A3A54",
"B  c #03365A",
"V  c #0A355A",
"C  c #043C5B",
"Z  c #0B3B5C",
"A  c #1C3652",
"S  c #143A51",
"D  c #12365C",
"F  c #123A5B",
"G  c #1A3958",
"H  c #2A2B4C",
"J  c #3C2541",
"K  c #213454",
"L  c #353B55",
"P  c #2F364B",
"I  c #0A2F63",
"U  c #043C62",
"Y  c #0C3D64",
"T  c #033D6A",
"R  c #0A3D6A",
"E  c #0D3566",
"W  c #123A6E",
"Q  c #113E67",
"!  c #0C3A76",
"~  c #353D62",
"^  c #413948",
"/  c #074155",
"(  c #04435D",
")  c #0A435D",
"_  c #094A5E",
"`  c #12425D",
"'  c #194157",
"]  c #3E4559",
"[  c #3B5450",
"{  c #034364",
"}  c #0B4264",
"|  c #054A64",
" . c #0C4B62",
".. c #04446C",
"X. c #0B446C",
"o. c #024B6C",
"O. c #094A6D",
"+. c #124565",
"@. c #12436B",
"#. c #184968",
"$. c #04526F",
"%. c #0B516A",
"&. c #16516F",
"*. c #054572",
"=. c #0B4573",
"-. c #054B73",
";. c #0C4B73",
":. c #0A437D",
">. c #054C7B",
",. c #0B4C7A",
"<. c #124571",
"1. c #124C72",
"2. c #134B79",
"3. c #11457F",
"4. c #045173",
"5. c #0A5176",
"6. c #04537C",
"7. c #0B527C",
"8. c #0A587F",
"9. c #14587B",
"0. c #204369",
"q. c #374D69",
"w. c #2D5172",
"e. c #366079",
"r. c #4F4442",
"t. c #454856",
"y. c #5B5643",
"u. c #5F6052",
"i. c #55674F",
"p. c #595577",
"a. c #4F5769",
"s. c #676475",
"d. c #8D6415",
"f. c #B07215",
"g. c #955D2A",
"h. c #A75B27",
"j. c #916A2F",
"k. c #936B28",
"l. c #AE7F31",
"z. c #A8762F",
"x. c #C9741A",
"c. c #C26F29",
"v. c #B68528",
"b. c #CA9E33",
"n. c #C09725",
"m. c #E6A424",
"M. c #E9B02F",
"N. c #EBA938",
"B. c #FDC13D",
"V. c #C69D45",
"C. c #054E81",
"Z. c #0D4C80",
"A. c #094C8A",
"S. c #134B80",
"D. c #055484",
"F. c #0B5482",
"G. c #0B5983",
"H. c #05558C",
"J. c #0A548B",
"K. c #06598B",
"L. c #0B5B8C",
"P. c #065983",
"I. c #125384",
"U. c #125B86",
"Y. c #10558D",
"T. c #115B8B",
"R. c #0D5D93",
"E. c #0A5D98",
"W. c #105C9B",
"Q. c #125893",
"!. c #0A648E",
"~. c #0C6084",
"^. c #12648C",
"/. c #056493",
"(. c #0C6297",
"). c #0B639D",
"_. c #046B9C",
"`. c #0A699C",
"'. c #046895",
"]. c #106599",
"[. c #126B9C",
"{. c #166897",
"}. c #07729E",
"|. c #0B66A3",
" X c #0C6AA3",
".X c #076BA9",
"XX c #136BA4",
"oX c #136AAA",
"OX c #0974AA",
"+X c #1574AC",
"@X c #1476A3",
"#X c #0F6DB1",
"$X c #0865B3",
"%X c #077EBC",
"&X c #0C7ABE",
"*X c #0F76B0",
"=X c #177ABA",
"-X c #767999",
";X c #71768B",
":X c #0B7CC6",
">X c #117CC3",
",X c #117FCC",
"<X c #847C8B",
"1X c #0A81AC",
"2X c #0B83BD",
"3X c #72879C",
"4X c #0D83CB",
"5X c #0784C5",
"6X c #1282CB",
"7X c #1489CE",
"8X c #858B9B",
"9X c #8789AC",
"0X c #899EBD",
"qX c #9BA7BD",
"wX c #A7AABA",
"eX c #B8B0BB",
"rX c #9EB0C4",
"tX c #A9A8C3",
"yX c #ACB2C0",
"uX c #B8B9C6",
"iX c #ACBDD1",
"pX c #B9C3C2",
/* pixels */
"- o * s s h i & - u * f h a } M S { U N ` m y u l m v n = f n * ",
"o i C X. .Y n y h C M C n n L.[.(.|.'.'. XR.-.o.4.-.*.} j ..:.U ",
"; ( 6.-.O.} C g V X.X.Y Z C |.4X:X:X2X%X4X#X,.$.6.6.=.` / ,.A.R ",
"g ;.6...} Z Y C V *.Y +.F Z |.:X,X:X2X&X4X+X#.5.,.X.@.F ( K.R.C ",
"n ,.A.Z.2.2.R R | >.2.2. .(  X4X7X5X5X4X7X*X;.3.C.C.S.,.P. X).{ ",
"u X.J.J.T.U.X.V O.J.F.F.;.C !.XX@XOXOXoX*X'...=.D.K.L.F.G.W.Y.M ",
"* N ..o.6.6.| k Z =.R =.;.V O.0.#.;.@.Y 4.-.C } >.8.,.U N X.R * ",
"p v Z Z o.6.,.+.h U B ..O.S q.t.a.q.L s C R C _ ;.2.;.g * y x * ",
"x Z R @.@.J.E.9.{ F Z O.+.q.3X9X9X9X;X] W ;. ...X.%.o.{ y / ( y ",
"f ) 5.,.C *.A.I.U O.X.p L <XwXyX0XwXuXs.A M X.C.Y +.;.2.V V Y i ",
"h | D.5.n M =.X.b Y C y H -XrXiXuXpXeXp.s h m V n N Y ,.Y D V g ",
"c ! ,.-.Y ..;.X.N n i = 2 a.8XwXtXwX;XL p F D @.( { ..-.m V C & ",
"( ;.=.@.I.].R.T.4.m u h s H p.-X3X;X] z Q  . .G.].`._.D.M C { g ",
"$.U.1.Q U.(./.!.Q.R V M > < 2 ] ~ ^ r 9 S.J.6.[.>X4X%X(.| *.,.m ",
"-.R.=.V O.o.%.o.o.R ! A q b.b.j.r k.M.v.u.#.4.{.>X:X%X`.O.,.:.g ",
") >.R p m m D V C h F i 0 v.N.x.f.m.B.v.0 K :.#X1X=X&X`...R Y ; ",
"g N j l g l m U R g N p d y.z.h.c.m.l.r 3 z ,.#X4X5X5X#X*.U Y c ",
"= n M M C B =.H.5.) O.V + @ 2 1 t k.3 O ' &.o._.+X=X=X/.o.P.D.M ",
"s Z } @.X.T 7.W.R.2.2.[ q $ + O , - X c {.XX{ { ` } X.C ( K.K.{ ",
"= B C N Z V Z Y T *.A.i.d.4 O X o o o +.|.$X*.D ` k N V } *...c ",
"u U U M m N S i i =.).e.6 < o O 6 6 2 <.#X.X*.>.A.Z.,.:.,.7.X.d ",
"h F.6.C C ..} C f  ./.D.c O   # 7 f.w #.XXI.M o.L.T.L.G.9.Y.>.m ",
"Z XX[.O.{ *.-...M ) !.^.X.A # . t f.8 K T Y ` X._ U *... .-.T x ",
"U  X).| } X.X.Y T X.W.Y.R Y O @ 4 h.7 K X.H.L.S.*.;.C.>. . .| n ",
"U |._.o.Y @.Y { U R R.R.Y ( N * 1 9 t.G ..P.G.*.=.,.8.,.S.8.$.g ",
"Y |.`.o.U W +.X.M +.{.L.U ) Y i * ' #.X.*.=.X.} =.X.O.;.,.5.C u ",
"Y ).'.{ B R } } k F 8.6.V F N y i n V Y Y V n k C C n Z O.C p = ",
"n !.!.( C } } ) F x o...p * & & m v p c n C n Z g M M ..=.R x & ",
"i F.T.O.Y <.@.+.) M 6.,.m a a k | ) N n C { o.2.} o.!.XXoX X~.) ",
"n H.R.;.-.>.,.X.( | 8.I.Y Z I X.X.X...| } } -.F.=.F.OX6X:X5X}.Q ",
"g >.>.} { -...C / M ;.=.Z ) E V E Z V Z F m U -.Y ..L.XX.X_.G.V ",
"% B U y g M g h a y V m f ; u l f f i u y f g B g g N } U U m f "
};
