/* XPM */
static char *YmFjay1yZW1vdmViZy1wcmV2aWV3[] = {
/* columns rows colors chars-per-pixel */
"32 32 223 2 ",
"   c #020102",
".  c #0B0102",
"X  c #030905",
"o  c #090B06",
"O  c #020408",
"+  c #09050A",
"@  c #090B0B",
"#  c #130401",
"$  c #1B0300",
"%  c #1B0802",
"&  c #160D0A",
"*  c #0E120B",
"=  c #07140A",
"-  c #10120D",
";  c #100E11",
":  c #0D1310",
">  c #0E1810",
",  c #1B1413",
"<  c #141B15",
"1  c #191915",
"2  c #1C1F1A",
"3  c #141413",
"4  c #381C16",
"5  c #271510",
"6  c #182216",
"7  c #27241A",
"8  c #3C211D",
"9  c #3C2C1F",
"0  c #1C2521",
"q  c #232D23",
"w  c #2C2C26",
"e  c #252D29",
"r  c #2C2C2B",
"t  c #252324",
"y  c #332B26",
"u  c #392F26",
"i  c #372A29",
"p  c #2B352A",
"a  c #36322C",
"s  c #3C3A2D",
"d  c #37382E",
"f  c #2C3532",
"g  c #393B3C",
"h  c #393935",
"j  c #4E1A0F",
"k  c #591A0D",
"l  c #431B13",
"z  c #4E1D18",
"x  c #541C13",
"c  c #5D1C11",
"v  c #5A1A14",
"b  c #6A1A0E",
"n  c #631C14",
"m  c #6C1D12",
"M  c #71190D",
"N  c #57210C",
"B  c #4C261B",
"V  c #5E2115",
"C  c #55241A",
"Z  c #582418",
"A  c #5E391E",
"S  c #642115",
"D  c #662218",
"F  c #6C2419",
"G  c #682615",
"H  c #7C241B",
"J  c #73291B",
"K  c #7A2A1D",
"L  c #752518",
"P  c #65351E",
"I  c #462A24",
"U  c #4A2D28",
"Y  c #462C26",
"T  c #542A2A",
"R  c #4D3329",
"E  c #45372A",
"W  c #593728",
"Q  c #493935",
"!  c #5C3A37",
"~  c #632A22",
"^  c #692C21",
"/  c #7C2D22",
"(  c #752B20",
")  c #783D2D",
"_  c #7E3026",
"`  c #6E3C39",
"'  c #673B32",
"]  c #743D39",
"[  c #773C36",
"{  c #2F472F",
"}  c #37402F",
"|  c #3A443C",
" . c #38453A",
".. c #355238",
"X. c #4B4434",
"o. c #44433E",
"O. c #4B4B3E",
"+. c #484739",
"@. c #554635",
"#. c #574638",
"$. c #51523D",
"%. c #6D4029",
"&. c #6D4139",
"*. c #614134",
"=. c #7A453F",
"-. c #63513D",
";. c #3D3C41",
":. c #3B4B41",
">. c #374641",
",. c #3C5746",
"<. c #396645",
"1. c #484B4B",
"2. c #564E4B",
"3. c #465443",
"4. c #465748",
"5. c #515C4B",
"6. c #595A44",
"7. c #555951",
"8. c #495450",
"9. c #704741",
"0. c #675546",
"q. c #725445",
"w. c #4A684E",
"e. c #55654C",
"r. c #486852",
"t. c #586757",
"y. c #4B7351",
"u. c #656959",
"i. c #776D5A",
"p. c #577668",
"a. c #696E61",
"s. c #667563",
"d. c #7C7761",
"f. c #841E1A",
"g. c #84271E",
"h. c #832C1E",
"j. c #8A321E",
"k. c #8D2724",
"l. c #842C23",
"z. c #8B2C25",
"x. c #872925",
"c. c #932E2A",
"v. c #952B2B",
"b. c #823125",
"n. c #84352B",
"m. c #8D322B",
"M. c #86392E",
"N. c #8D3A2C",
"B. c #8C3227",
"V. c #94342E",
"C. c #943A2C",
"Z. c #8B3C33",
"A. c #853C36",
"S. c #963631",
"D. c #9A3532",
"F. c #943B31",
"G. c #9C3B36",
"H. c #9C3E39",
"J. c #A13F35",
"K. c #A53C3C",
"L. c #A43738",
"P. c #85453A",
"I. c #954235",
"U. c #9C473A",
"Y. c #A4433C",
"T. c #AD413F",
"R. c #A54E3D",
"E. c #A93F43",
"W. c #994C47",
"Q. c #8C524B",
"!. c #92564B",
"~. c #9E5B56",
"^. c #835050",
"/. c #A44342",
"(. c #AB4543",
"). c #A44A43",
"_. c #AC4B45",
"`. c #AF4749",
"'. c #AC4A4B",
"]. c #A24E4B",
"[. c #B44D4C",
"{. c #B24647",
"}. c #A75442",
"|. c #AA554C",
" X c #B2574B",
".X c #AD5452",
"XX c #AB5C53",
"oX c #A35956",
"OX c #BA5B54",
"+X c #B75654",
"@X c #BC4D53",
"#X c #836752",
"$X c #AE635E",
"%X c #BA655A",
"&X c #897668",
"*X c #9C6664",
"=X c #B26564",
"-X c #B76A67",
";X c #AF7662",
":X c #AE6669",
">X c #C45B5C",
",X c #C5605A",
"<X c #C76962",
"1X c #CA6864",
"2X c #CE736C",
"3X c #C3766A",
"4X c #CE7A76",
"5X c #DA7974",
"6X c #D16865",
"7X c #5C8475",
"8X c #67826B",
"9X c #78816E",
"0X c #648475",
"qX c #6D8474",
"wX c #798876",
"eX c #6D957D",
"rX c #878B7D",
"tX c #6E9A85",
"yX c #769D8B",
"uX c #6FA18E",
"iX c #78A28E",
"pX c #889384",
"aX c #94A092",
/* pixels */
"  X     +       % W ] A.A.[ %.A P %.A.P.P.` 4 #     X   O +     ",
"X     +     . 9 *.9.!.oXW.b.G j N G M.W.Q.Q.&.U .       O O     ",
"      +   # 8 =.Q.=XOX'.`.H.x.m G b.W..X.X=XoX' 4 .   X         ",
"          # U =.].W.E.E.@X{.c.H L l.D.[.{.).].oX' $ .           ",
"        . $ ] oXY.D.[.>X[.{.G.l.B.S.V.(.@XK.D./.~.&..           ",
"      . . $ ] ].k.[.5X6X'.[. XY.Y.OX(.K.>X6XK.k.W.] %           ",
"        # i ] m.c.,X5X%X%X4X2X%X%X2X,X_._.,XY.H P.~ U .         ",
".         I ~ m g._.OX).+X2X2X X_.OX<X[.Y.OXU.M F ~ U .         ",
"        . I k L V.J.Y.G.(.+X[.T.H./.+X'.Y.U.F.L n Z Y .         ",
"        # 4 Z F C.B.Y.Y.L.{.T.k.S.Y./.E.H.m.F.K k B 4 . .     X ",
"      . . 5 Z ( h.j.Y.Y.L.K.L.k.c.K.L.L.G.z.C.M.c l % .   O     ",
"X       . U C D h.C.C.D.(.K.v.f.k.S.{.v.V.S.l.Z.^ l .           ",
"    .   # I z D / I.n.N.H.m.B.g.S._.>Xk.x.F.g.n.G l #     O     ",
"        5 4 v c b.I.J Z..XZ.K l.|.,XOX/ L b.g.K V l 5           ",
"      . i 8 v n l.z.b M.3X$XL m }.%XI.S S S L m c z % .         ",
"        i Q z z n J c F oX-XU.L I.I.J k V c S v j B #           ",
".     > 1.t.s E R B N S J R.U.h.j.N.J G S x C B E s *           ",
"+   O p t.wX0Xp.t.X.R Z V K I.j.j.R.P.Z Z W @.$.e.5.q           ",
"      p ,.qXaXyXeX8Xe.X.W P.;X XI.U.%.A X.e.w.y.y.t. .O     X   ",
"      e  .p.yXuXuXiXeX8Xi.i.;X3XR.h.P *.5.y.y.<.4.w. .o .       ",
"      > :.4.p.7X7XuXuXiXwX&X#X!.I.C.P.` 1.w.y.....O.w o . .     ",
"      X }  .4.,.<.0Xp.p.qXpXi.*.P.,X-X` X.$.3.{ p d -     .     ",
"      6 3.t.e.f  .:.>.>.8.7.7.! ~.4X:X] R d  .+.$.| X           ",
"      p 5.9Xs.} p < 0 f ;.;.;.! *X-Xq.T 4 y O.u.rXu.*       X   ",
"      y O.a.9X5.q = > | 1.1.1.2.^.] ! U 5 t s.pXaXwX-           ",
"  . . y a s a.u.e > q e +.1.1.Q ! ! Q h w w t.pXs.7.o           ",
"O   O   a o.0 :.f g t a +.0.&X&X0.8 , 1 1 3 q 6 3. .@ .         ",
"O         @ e 0 X + w Q E #.0.0.! &   ; g 3 < < = @             ",
"O         + +   + O + , E @.i.$.7 , 1 r + +   o X   X           ",
"        .             . d @.$.X.w w t ; O                       ",
"  O         .     O     1 a u u y o       O           O         ",
"X         .         X   X   # .     + .                     .   "
};
