/* XPM */
static char *ZnJvbnQtcmVtb3ZlYmctcHJldmlldw__[] = {
/* columns rows colors chars-per-pixel */
"32 32 223 2 ",
"   c #020202",
".  c #0B0102",
"X  c #020903",
"o  c #040309",
"O  c #0B0309",
"+  c #0B0A0C",
"@  c #090905",
"#  c #140202",
"$  c #1A0000",
"%  c #130A04",
"&  c #140F0B",
"*  c #1A0C0A",
"=  c #1C0B01",
"-  c #0C130C",
";  c #0A1008",
":  c #16140E",
">  c #181815",
",  c #060E11",
"<  c #240B06",
"1  c #28110E",
"2  c #37150B",
"3  c #201E1A",
"4  c #2B1B14",
"5  c #341B14",
"6  c #3C1912",
"7  c #381B16",
"8  c #340F09",
"9  c #162217",
"0  c #27271D",
"q  c #32231E",
"w  c #393816",
"e  c #27301D",
"r  c #1E2924",
"t  c #222423",
"y  c #242C24",
"u  c #2D2B25",
"i  c #2A282C",
"p  c #372926",
"a  c #2A3324",
"s  c #2C332B",
"d  c #31322C",
"f  c #353929",
"g  c #302E31",
"h  c #2A3637",
"j  c #343533",
"k  c #3D3B32",
"l  c #3D3C3B",
"z  c #363C34",
"x  c #451409",
"c  c #58170B",
"v  c #441C16",
"b  c #561B13",
"n  c #661B0C",
"m  c #681E15",
"M  c #43220F",
"N  c #46241B",
"B  c #48271E",
"V  c #582418",
"C  c #50381C",
"Z  c #6F240E",
"A  c #6B231B",
"S  c #662218",
"D  c #76261A",
"F  c #7D311A",
"G  c #623317",
"H  c #442824",
"J  c #492926",
"K  c #5B2721",
"L  c #552B27",
"P  c #43392A",
"I  c #463526",
"U  c #54312C",
"Y  c #5C332D",
"T  c #423C36",
"R  c #5A3631",
"E  c #563530",
"W  c #682925",
"Q  c #7A2C23",
"!  c #772B25",
"~  c #7C3223",
"^  c #7A3628",
"/  c #6E3E39",
"(  c #613836",
")  c #723C38",
"_  c #7E3E3B",
"`  c #763734",
"'  c #65332A",
"]  c #3A402E",
"[  c #3D433B",
"{  c #384438",
"}  c #494129",
"|  c #424B3B",
" . c #474439",
".. c #4D503F",
"X. c #554E34",
"o. c #6A4238",
"O. c #75453B",
"+. c #6C5935",
"@. c #725539",
"#. c #646539",
"$. c #74603D",
"%. c #373F42",
"&. c #3A4A43",
"*. c #364A45",
"=. c #38574F",
"-. c #484A45",
";. c #584E45",
":. c #475146",
">. c #4D524A",
",. c #4C5546",
"<. c #555847",
"1. c #545D52",
"2. c #585A57",
"3. c #6F4342",
"4. c #695846",
"5. c #7D504A",
"6. c #685C52",
"7. c #795F50",
"8. c #764A41",
"9. c #5F6149",
"0. c #466357",
"q. c #5F6A59",
"w. c #5C6655",
"e. c #5B725A",
"r. c #7C6649",
"t. c #656658",
"y. c #7A6C5B",
"u. c #716154",
"i. c #6B715E",
"p. c #7E7357",
"a. c #506761",
"s. c #5C7B6C",
"d. c #767867",
"f. c #67746C",
"g. c #812C18",
"h. c #832D27",
"j. c #843225",
"k. c #8C3B2D",
"l. c #86372B",
"z. c #8C3634",
"x. c #8D3B33",
"c. c #8B3C3C",
"v. c #853937",
"b. c #923D3D",
"n. c #9A3C35",
"m. c #90461F",
"M. c #914623",
"N. c #96492B",
"B. c #8C463C",
"V. c #864437",
"C. c #9D483E",
"Z. c #94453A",
"A. c #995237",
"S. c #88563B",
"D. c #A5553F",
"F. c #85653F",
"G. c #803E40",
"H. c #884B43",
"J. c #984843",
"K. c #835F47",
"L. c #9E594A",
"P. c #8D5952",
"I. c #A44E44",
"U. c #A14544",
"Y. c #A5544D",
"T. c #A75548",
"R. c #B2584B",
"E. c #B65C54",
"W. c #A95F54",
"Q. c #89654A",
"!. c #826B5B",
"~. c #9D7A59",
"^. c #8C7755",
"/. c #A46555",
"(. c #BC6554",
"). c #B6655C",
"_. c #A47855",
"`. c #8C7763",
"'. c #91796C",
"]. c #BA6A62",
"[. c #AA7660",
"{. c #C1635D",
"}. c #C36965",
"|. c #C97569",
" X c #D37C72",
".X c #C87972",
"XX c #6D8B78",
"oX c #778977",
"OX c #75816B",
"+X c #888856",
"@X c #A5815D",
"#X c #878668",
"$X c #868977",
"%X c #84947A",
"&X c #AE9272",
"*X c #DA9B6C",
"=X c #D79574",
"-X c #CA9071",
";X c #C8A47F",
":X c #E4B27F",
">X c #7D8F83",
",X c #859E80",
"<X c #939F91",
"1X c #A29A8C",
"2X c #B39A86",
"3X c #9AA48B",
"4X c #96A392",
"5X c #DF9F84",
"6X c #CDA582",
"7X c #D7AC88",
"8X c #D3B687",
"9X c #DDAB90",
"0X c #E8B88A",
"qX c #E6B795",
"wX c #F7BD98",
"eX c #ECC38D",
"rX c #EEC49D",
"tX c #E9C697",
"yX c #F6C899",
"uX c #FBD4AB",
"iX c #FEDBAB",
"pX c #FFD9B4",
"aX c #FFD4B3",
/* pixels */
"      .     o     . < 5 v p 5 p 5 7 7 7 5 =           o         ",
"          o     * 7 R o.) ) R B L Y ) 8.Y B 5 .                 ",
"              1 R 3.H.W.W.I.v.m W Z.W.].Y.H.o.J %               ",
"            1 R ) J.]. X{.n.h.D j.I.). X|.Y.B.3.H =         .   ",
".         # ( v.v.c.Y.}.{.n.A m D Q I.}.{.U.z.c.O.J # . .       ",
".         $ ` G.^ Y.].}.E.J.D n D z.Y.).}.}.U.! _ 3.1 .         ",
"        . $ W v.J..X].~ D h.Q n h.k.g.A b.|.}.b.` / p .         ",
"        . < W v.].|.V.m n n Z Z g.D n n Z Y. XY.! K U &         ",
"        . 8 A V.|.(.F j.D.N.M.m.M.M.N.A.F k.|.{.Q S L *         ",
"        . x ! C.(.D.F D.=X*X*X*X*X*X=X-XN.j.D.{.k.W Y *         ",
"        . 6 ! J.(.D.F L.5XwXyXeXeXyXwX-XM.k.R.E.Z.` J #         ",
"        . 1 b z.I.D.F o.[.qXiXiXiXuX6X/.m z.R.n.^ ' 2           ",
"          4 2 S z.Z.` v M ~.tXyXyXqX@.x W v.G.z.V N %     o     ",
"          u 8 c h.c.P.X.< r.qX0X0X9XC < 5.H.G.h.x 6             ",
"          p x m J.Z.'.`.w +X0X:XeX;X+.w !.P.U.z.V N .   o       ",
"      o . p K H.Y.V./.&X+.&XtXyXyXtX+X#.r.H.J.Y.v.L .     .     ",
"        O p K O.N.j.&X7X6XtXuXpXiXiX8X6X6X/.! H.) U #       o   ",
"    o     1 E G V G _.;XrXpXaXiXiXuXuXtX-XS.V V R J . @ o   o   ",
"  X     . . p f } X.r.r.@X6X7X9XqX9X&X@XF.+.C f P *     X       ",
"X   .     3 :.q.i.i.#Xp.@.@.7.Q.P.Q.@.+.+X#Xt.e.-.&.+           ",
"      X X s &.0.OXXX4X4Xd. .P 4...P X.#X3X>XXXXXa.&.-.+     .   ",
"  X   t j :.&.*.{ =.XX>XoX<.} ,.|  .i.%XXXOX0.=.h &.%.1   .   o ",
".   % u k t.oX[ s s { *.1.1.|  .[ >.2.>.{ { { *.%.g -.* . . o   ",
". . u k ..i.3Xd.e > 9 h &.<.>.>.2.-.>.[ e r { s.2.-.-.&       o ",
"    d ] <.q.OXw.>   9 k 6.d.$X1X<X'.d.>.a 9 | 4X<Xf.2.;       X ",
"  o y a f ] :.] j > 0 l ;.6.y.y.!.u.6. .s y q.oXf.t.1.-     X   ",
",     - u d s : g i i l ;.6.'.!.u.6.T u r 9 { 9...;. .>         ",
"          @ +   o j j [ l y.2X&X4.E 9 t r r 0  .;. .d +         ",
"              .   @ ; { e <.#X4.P % + t , o X z f d +   o   o   ",
"                X   X a a f +.X.0 d g > o       . X       o     ",
"        .             . p  .t.t.z y o . O .       X     .   o   ",
"o o . o o   X       . . # * % @ @     O . .     X           . O "
};
