/* XPM */
static char *ZnJvbnQ_[] = {
/* columns rows colors chars-per-pixel */
"32 32 225 2 ",
"   c #1A191F",
".  c #301818",
"X  c #36361E",
"o  c #0E122F",
"O  c #10162B",
"+  c #031B3A",
"@  c #071F37",
"#  c #161F30",
"$  c #361C27",
"%  c #251329",
"&  c #032B3D",
"*  c #0B2B3D",
"=  c #092738",
"-  c #122335",
";  c #12243C",
":  c #1A2638",
">  c #18333C",
",  c #2A2727",
"<  c #283B37",
"1  c #383639",
"2  c #2B2E37",
"3  c #401C0C",
"4  c #47291F",
"5  c #773C1C",
"6  c #582525",
"7  c #423324",
"8  c #412E34",
"9  c #543A32",
"0  c #5C3D2B",
"q  c #7D3421",
"w  c #4C4226",
"e  c #534B27",
"r  c #6A4423",
"t  c #66472B",
"y  c #664838",
"u  c #706537",
"i  c #091D42",
"p  c #0B2643",
"a  c #042C45",
"s  c #0C2C45",
"d  c #052D4B",
"f  c #0B2D4A",
"g  c #032648",
"h  c #102D43",
"j  c #152A4A",
"k  c #043244",
"l  c #04334B",
"z  c #0B334D",
"x  c #043A4F",
"c  c #0B394A",
"v  c #11324A",
"b  c #173649",
"n  c #032D52",
"m  c #0C2B55",
"M  c #142F5E",
"N  c #033454",
"B  c #0A3454",
"V  c #033B54",
"C  c #0B3A53",
"Z  c #04345B",
"A  c #0B355C",
"S  c #043C5C",
"D  c #0B3B5C",
"F  c #133C53",
"G  c #10365B",
"H  c #123C5C",
"J  c #173555",
"K  c #2F2643",
"L  c #243349",
"P  c #283954",
"I  c #0C3563",
"U  c #053D63",
"Y  c #0A3D63",
"T  c #033E6C",
"R  c #0B3E6A",
"E  c #003760",
"W  c #113D64",
"Q  c #123E6C",
"!  c #193B69",
"~  c #0C3B71",
"^  c #523740",
"/  c #403D58",
"(  c #443C4B",
")  c #04425C",
"_  c #0B435B",
"`  c #0B4656",
"'  c #194559",
"]  c #28474A",
"[  c #304546",
"{  c #3F4656",
"}  c #034364",
"|  c #0B4364",
" . c #044A64",
".. c #094963",
"X. c #04436B",
"o. c #0C456C",
"O. c #054B6D",
"+. c #094A6C",
"@. c #124263",
"#. c #12426A",
"$. c #114C6A",
"%. c #07516A",
"&. c #06526A",
"*. c #034473",
"=. c #0B4572",
"-. c #044B73",
";. c #0A4C74",
":. c #044D7B",
">. c #0B4C7A",
",. c #08467D",
"<. c #134C73",
"1. c #144A79",
"2. c #124575",
"3. c #075172",
"4. c #0C5273",
"5. c #04537C",
"6. c #09527D",
"7. c #0D5A7E",
"8. c #12507D",
"9. c #105A7F",
"0. c #394560",
"q. c #224974",
"w. c #265676",
"e. c #284C66",
"r. c #47554C",
"t. c #55465B",
"y. c #524A58",
"u. c #504D52",
"i. c #695449",
"p. c #705153",
"a. c #475667",
"s. c #4E5575",
"d. c #5D5F74",
"f. c #585663",
"g. c #67506A",
"h. c #57636F",
"j. c #5A6B75",
"k. c #7F656E",
"l. c #696474",
"z. c #686264",
"x. c #736D53",
"c. c #85461B",
"v. c #AD7C1F",
"b. c #B1751F",
"n. c #A4651E",
"m. c #865D2F",
"M. c #9A5E28",
"N. c #936B2B",
"B. c #996430",
"V. c #957638",
"C. c #AA7122",
"Z. c #865B4B",
"A. c #9A734A",
"S. c #806878",
"D. c #AA7968",
"F. c #7D837F",
"G. c #AE8B31",
"H. c #BD8C3F",
"J. c #C39839",
"K. c #D68D3E",
"L. c #8E847A",
"P. c #B8896A",
"I. c #A3817F",
"U. c #B49275",
"Y. c #B89263",
"T. c #CF9C41",
"R. c #054E81",
"E. c #0C4C81",
"W. c #0A4080",
"Q. c #055585",
"!. c #0B5383",
"~. c #065983",
"^. c #0D5A86",
"/. c #04558A",
"(. c #0B548B",
"). c #04598A",
"_. c #0B5B8B",
"`. c #115383",
"'. c #125A84",
"]. c #125B8C",
"[. c #195780",
"{. c #0C5C93",
"}. c #0E5C99",
"|. c #065B97",
" X c #115B95",
".X c #165B95",
"XX c #08658C",
"oX c #116389",
"OX c #0B6496",
"+X c #0C679D",
"@X c #056B9D",
"#X c #0C6A9C",
"$X c #096793",
"%X c #136A9D",
"&X c #126493",
"*X c #01759E",
"=X c #2C6183",
"-X c #206B93",
";X c #135DA4",
":X c #036CA5",
">X c #0C6AA4",
",X c #0B69A5",
"<X c #1266A1",
"1X c #126EAB",
"2X c #136CA5",
"3X c #0976A9",
"4X c #1072A1",
"5X c #1368B4",
"6X c #0B7CBE",
"7X c #0A76B5",
"8X c #1279B8",
"9X c #757A8F",
"0X c #0C7BC5",
"qX c #157BC5",
"wX c #0580BB",
"eX c #1483BA",
"rX c #0C82C4",
"tX c #0785C8",
"yX c #1282C5",
"uX c #1080CA",
"iX c #0982D3",
"pX c #94908F",
"aX c #948C8C",
"sX c #BC9D9A",
"dX c #918CA0",
/* pixels */
"; + * > h d d & - l d j p = H S D R T V D S & l m Z n l a l l & ",
"+ d ) o.| Y N a v D U G B x `.%XOXOX#X$X%XOX..} :.-. .D B | o.D ",
"* ) 5.-.o.| S c D R } | D } :XtX6X6XwX6X0X5X1.;./.:.o.' U >.E.o.",
"c O.5.X.Y D U S S R ) | A S :X0XqXwX6X0XiX7X;.>.R.*.@.H X.{.).X.",
"n >.(.E.1.1.o.R  .1.4.+.W U 1XyXyXyXtXuXiX3X+.-.!.>.<.<.(.+X&X} ",
"s o.(.Q.].'.o.A -.`.9.7.=.U .X<X4X4X1X1X3X$X..=.(.)._.6.(.}.(.A ",
"* C X.-.5.5. .c } T T ,.*.Y q.q.w.1.2.#.6.:.S #.5.Q.6.U Y X.Y d ",
"d m D D O.5.;.#.B Z A R ..' s.j.a.y.L b D X.S  .o.>.+.a s k k & ",
"n D R #.#.(.{.'.! U | o.H 0.dX9Xs.9Xh.P H $.o.o.;.<.;.Y s c | k ",
"k ) 6.;.S X./.`.} .. .N P d.9X0.a.pXk.y.j N ;.*.H o.-.3.V D U s ",
"B ..7.3.N Z =.Q Z F C l P l.S.p.y.k.dXg.K * c Y z A X.5.S S D s ",
"Z o.-.+.Y =.>.o.D d = p J ( Z.D.D.x.z.t.P x V } ) } *.=.B B D s ",
") ;.#.o.`.&X{.].>.S & p n # i.U.Y.y < P 1.;.o.9.#X#X|.E.B D | l ",
"&.^.,.o.9.$XXXOX(.| C A s : u.I.aXy.L f >.{.2.&X0XrX6X+XO.=.=.N ",
"&.{.2.A | +...O.-.| W L 1 y i.I.sXS.y 9 e.].:.1X6XrXrX3X-.-.;.N ",
"} :.Y f A A F B B I A ; 4 B.M.U.Y.A.C.K.x...*.2X3XeXwX>XX.U ) k ",
"l D x k l f v S U _ k h 1 t N.J.K.G.n.G.u b *.*XyXqXqX4XX.U R B ",
"p V x x S S o.Q.:.` &.u.6 $ w G.J.V.0 0 < p R 5X8X8X7X$X-.6.5.N ",
"s A | $.X.*.`. X.X| /.0.q 4 O $ 2 , X e [ A S  .X...X.U } ^.).) ",
"p Z Z C V N H R D O.&X[.L # + + + o t N.r.X.X.o._ C C A Y ,.*.n ",
"s X.U x c C J B l ) oX).T * , : O % 9 u.=XOX*.W./.>.>.>.8.!.o.j ",
"z 6.6.S S | Y Z A D #X].H L t r 6 . . C |.^.S 3.{.'.^.!.'.^.-.l ",
") %X+X+...*.=.X.} _ &X].D ] V.v.q 3 , P o._ C ) D | X.X.| -.X.k ",
") >X,XX.} X.o.| B X.}.{.F X m.c.4 O h M =./.}.3.o.-.Q.:.| o.=.C ",
"U @X@XO.W Q Y  .Y ~ ;X'.b r.i.^ - l ) Y =.~.~.;.-.:.8.:.:.5.3.V ",
"I >X@XX.D Q Q } V o.<X_...' ] > f C  .#.R *.o.W =.o.o.+.6.;.Y p ",
"Y #X#X} Z R | _ c _ !.-.| D k p f B _ B G V V B D A V Y o.U d ; ",
"B _.XX .S | _ | c z X.D f f p m B N l a c x V ) l N N Y o.T d & ",
"d !._.+. .=.| | ) S 6.+.k k k I X. .S N D | ..<.} +.].2X:X>X'.) ",
"N _.{.;.*.6.>.R ..R {.].Y V ) } =.o.| | #.o.,.`.*.!.1XyXtXtX#XX.",
"k :.6.} } -.O.S _ B :.-.D D C ) A D D D A S T -.Y X.].>X:X#X^.S ",
"= Z A f l N l l a & V k s m s a l d k s p a f x l x C | U U S f "
};
