/* XPM */
static char *bGVmdA__[] = {
/* columns rows colors chars-per-pixel */
"32 32 225 2 ",
"   c #09120F",
".  c #150C1F",
"X  c #281415",
"o  c #3B1F1C",
"O  c #081528",
"+  c #181C29",
"@  c #0C0E3F",
"#  c #071D3B",
"$  c #27162A",
"%  c #2B0E2A",
"&  c #03202E",
"*  c #112A2F",
"=  c #05223A",
"-  c #042B3D",
";  c #0A2D3E",
":  c #092737",
">  c #142A3B",
",  c #1B2836",
"<  c #04333D",
"1  c #0F363B",
"2  c #133537",
"3  c #28233A",
"4  c #352B35",
"5  c #353E3D",
"6  c #373328",
"7  c #603C0A",
"8  c #411F20",
"9  c #511E25",
"0  c #4D302C",
"q  c #553E2E",
"w  c #482D39",
"e  c #52313C",
"r  c #522F26",
"t  c #394E2F",
"y  c #2F453B",
"u  c #6F551C",
"i  c #7E4617",
"p  c #494735",
"a  c #594335",
"s  c #65402E",
"d  c #7C5729",
"f  c #604035",
"g  c #76583C",
"h  c #7F793B",
"j  c #0E1F4B",
"k  c #042D44",
"l  c #0B2C45",
"z  c #0E254F",
"x  c #032D4A",
"c  c #0B2B4A",
"v  c #0C2543",
"b  c #172D45",
"n  c #063245",
"m  c #0C3144",
"M  c #03334C",
"N  c #0A334C",
"B  c #033D4B",
"V  c #0B3A49",
"C  c #153448",
"Z  c #052A54",
"A  c #0A2E52",
"S  c #062358",
"D  c #122E5A",
"F  c #033553",
"G  c #0A3453",
"H  c #043B54",
"J  c #0B3B54",
"K  c #04365B",
"L  c #0C355B",
"P  c #043B5C",
"I  c #0B3B5C",
"U  c #133555",
"Y  c #123951",
"T  c #12395A",
"R  c #1C3759",
"E  c #222F40",
"W  c #263945",
"Q  c #27365C",
"!  c #3C3847",
"~  c #0C2D62",
"^  c #033562",
"/  c #033C62",
"(  c #0C3C63",
")  c #023C6A",
"_  c #0C3E6C",
"`  c #0C3762",
"'  c #123D62",
"]  c #133C6D",
"[  c #0A3D72",
"{  c #043A76",
"}  c #133F70",
"|  c #0A4156",
" . c #03435D",
".. c #0B435B",
"X. c #044153",
"o. c #12405C",
"O. c #314746",
"+. c #26475F",
"@. c #034264",
"#. c #0B4464",
"$. c #054A64",
"%. c #03446C",
"&. c #0B446B",
"*. c #044B6C",
"=. c #0B4B6D",
"-. c #134364",
";. c #11436B",
":. c #11496C",
">. c #18456F",
",. c #0D526F",
"<. c #054473",
"1. c #0A4572",
"2. c #034B73",
"3. c #0B4A73",
"4. c #044D7B",
"5. c #0C4C7B",
"6. c #084579",
"7. c #104770",
"8. c #134A74",
"9. c #124C7C",
"0. c #154677",
"q. c #065174",
"w. c #05527D",
"e. c #0B527D",
"r. c #095879",
"t. c #105475",
"y. c #14537B",
"u. c #21536C",
"i. c #255279",
"p. c #2F516F",
"a. c #474946",
"s. c #5A4547",
"d. c #435851",
"f. c #524559",
"g. c #774C49",
"h. c #69544D",
"j. c #655D50",
"k. c #60474A",
"l. c #59654F",
"z. c #434962",
"x. c #494665",
"c. c #485566",
"v. c #545469",
"b. c #405477",
"n. c #5A4C63",
"m. c #596874",
"M. c #6A6C7A",
"N. c #726866",
"B. c #96421D",
"V. c #866E0E",
"C. c #BE791C",
"Z. c #965E2F",
"A. c #8A502A",
"S. c #AB5A22",
"D. c #85652C",
"F. c #A96E22",
"G. c #A7722C",
"H. c #AF6E38",
"J. c #AB7559",
"K. c #A9873F",
"L. c #DCAC3D",
"P. c #C2A837",
"I. c #EEC23D",
"U. c #AF8877",
"Y. c #0D4D81",
"T. c #044F86",
"R. c #124F85",
"E. c #045282",
"W. c #0A5483",
"Q. c #045982",
"!. c #0C5A83",
"~. c #05548C",
"^. c #0B538B",
"/. c #0B5B8B",
"(. c #135483",
"). c #125984",
"_. c #115B8B",
"`. c #145389",
"'. c #095D92",
"]. c #135A91",
"[. c #125B98",
"{. c #0C628C",
"}. c #0B658A",
"|. c #11628E",
" X c #096995",
".X c #0C6399",
"XX c #0D6C9E",
"oX c #076597",
"OX c #10639D",
"+X c #146696",
"@X c #056CA3",
"#X c #0B6BA2",
"$X c #0B6CAA",
"%X c #116BA2",
"&X c #116BA8",
"*X c #0E73AA",
"=X c #1374AD",
"-X c #1778AD",
";X c #0D72B4",
":X c #057EBC",
">X c #0C7BBC",
",X c #0976B9",
"<X c #137AB7",
"1X c #5D6C8D",
"2X c #656E8D",
"3X c #667183",
"4X c #76798C",
"5X c #787A93",
"6X c #077EC5",
"7X c #117EC3",
"8X c #1281B9",
"9X c #0780B5",
"0X c #0E83C4",
"qX c #0C83CC",
"wX c #0481C4",
"eX c #1485C8",
"rX c #8C8A8F",
"tX c #9E9E82",
"yX c #88929E",
"uX c #878A9D",
"iX c #B1A491",
"pX c #B8A384",
"aX c #8F92A5",
"sX c #9492A8",
"dX c #A89AA7",
/* pixels */
": v v b m n x l > x M < k z I P @.) @.P _ H l x n M K k : n L ; ",
"# x I #.#.P M k C ^ P H G L ).+X X.X}.+X%X/._ @.2.2.1.#.H %.6.P ",
"- @.w.2.%.#.P M J @._ ( H / XX<X7X:X9X8XqX7X4.2.w.3.7.o...Y.~./ ",
"n *.W.<.( ( / K F @.[ _ J P @X:X6X:XwX9XqX,Xt.t.w.%.;.o.#./././ ",
"M 2.^.Y.0.8.&.K &.t.9.9...@.@X0XeX0XqX0XeX=X=.8.E.E.Y.5.r.$XOX@.",
"m &.W.!._.).=.G 3.!.`.R.5.@.oX;X-X=X;X=X=X{.#.3.W.^.^.W.Q..X^.H ",
"l I %.2.w.E.%.B / %.&.6.6.L #.9.6.6.*.%.4.2./ @.3.e.4.#.| &./ l ",
"z A G H =.w.q.o.G F H  .0.R C ' Q T 1 l / @.(  .3.5.1.M : n x ; ",
"Z I @.1.>.W.'.(.` &.#...+.c.v.c.v.M.d.Y ..:.3.&.$.3.=.P c I I n ",
"N ..2.3.( %.~.R.I @.P b.2X2X5X5XrXdXuX+.A ( 2.<.I :.5.3.F P / c ",
"M &.W.4.G K 1.&.T  .- z.M.v.f.4XaXsXaXx.E ; B B M I &.&.T I / c ",
"F _ 5.2.#._ 8.=.( n ; , y k.e f.m.m.3Xz.Q Z L ' P @.%.&.G I P ; ",
"X.3.1.%.!.].]._.r.Z c # $ h.j.d.s.v.x.Q ] [ 1.W._.+XoXQ.H P P m ",
"=.).3.@./.oX/.|.!./ ^ ^ Q N.U.iXJ.g.4 b 7.y.4.;X7X:XwXXX<.2.3.M ",
"3.'.5.G =.*.=.=.3.( 3.%.b j.pXU.g.9 o b (.).*.;X6X6X9X@X1.8.3.F ",
"I 4.%.c R N G ~ ) T Y B O.g J.g.f A.H.p *.Q.*.&X>X:X:X X .I _ G ",
"M P N l n n G ) P U G 2 t G.K.Z.i G.L.a } t.{ $XqXqXqX*X@. .#.l ",
"k H G G H / 2.~.e.F C 4 s G.I.P.D.d h y F ;.9.|.-X-X*XoXq.w.E.^ ",
"m I ( -.2.1.).[.^.-.y A.B.u C.u , : + : v S / $.%.@.@. .@.!././ ",
"= F P I K F I ( %.%.u.a.0 b w 3 O O 0 d p D &.=.#.( T I L 3.&.l ",
"l @.@.H F F Y N M &.OXy.D ) S = j . r d d.<.<.2.T.5.5.8.8.e.1.N ",
"M W.w.P P #.#.P L ../.).( N ^ k O   X o +.4./ q._.).).!.(.W.2.G ",
"( XXoX*.&.6.3.%./  .+Xi.O.s.! > # . % % z ^ ..H #./ 2.%.#.*.@.x ",
"P #XXX#./ 1.&.( H ;.i.l.V.S.B.4 # , X + I Y.}.R.&.2.W.2.#.&.3.G ",
"^ oXoXq.&.] ( @.J #.].p.a A.A.6 = , 3 b %.Q.r.3.<.0.9.w.4.e.,.F ",
"` &XXX*.K } ;.#.K :.'.r.< 5 a.> j C Y J #.1.1.@.1.1.&.3.w.3.I c ",
"( %XXX@.K &.&.#.K &.!.q.P ) A k k G @.#.( I H P ' P J -.3.#.c = ",
"H /.{.@.P / #.#.H F [ ` Z x = c k M x F F M F H M F K #.2./ x k ",
"x E./.=.#.1.&.' -.L 5.9.L l > R #.T I I ( &.=.,.#.&._.=X$XXX!...",
"F ~./.3.1.E.5.1.]  .!._.) P J / &.&...' _ 6.4.r.<.Y.=X0XqX0X#X) ",
"n w.E.#.@.2.%./ I H 2.&.K @.../ P I I I I P / 2./ &./.#X@X@X).K ",
": F K l M H M c - k K C ; M k c n x c l ; < M ~ M M J ' @./ L n "
};
