/* XPM */
static char *bGVmdC1yZW1vdmViZy1wcmV2aWV3[] = {
/* columns rows colors chars-per-pixel */
"32 32 218 2 ",
"   c #010102",
".  c #0B0101",
"X  c #030B02",
"o  c #03010A",
"O  c #0A050A",
"+  c #080909",
"@  c #130202",
"#  c #1A0201",
"$  c #190A07",
"%  c #181308",
"&  c #1C1412",
"*  c #1A1E1A",
"=  c #09160F",
"-  c #240400",
";  c #260B05",
":  c #330C00",
">  c #28150C",
",  c #33140C",
"<  c #2D0F11",
"1  c #241513",
"2  c #2D1C16",
"3  c #261815",
"4  c #1D241B",
"5  c #2E2B1A",
"6  c #3F2E1E",
"7  c #382417",
"8  c #33361B",
"9  c #221B23",
"0  c #1F2022",
"q  c #2C2E23",
"w  c #2D2E28",
"e  c #392D25",
"r  c #2A3328",
"t  c #32322E",
"y  c #3C3B2D",
"u  c #3A3728",
"i  c #2E2E30",
"p  c #302E31",
"a  c #2D3836",
"s  c #333432",
"d  c #3A3B37",
"f  c #4C1407",
"g  c #521205",
"h  c #5A190A",
"j  c #551C12",
"k  c #591E16",
"l  c #471F17",
"z  c #601C0C",
"x  c #6A1D0F",
"c  c #631C13",
"v  c #6A1C13",
"b  c #661A17",
"n  c #741E11",
"m  c #41200F",
"M  c #5E260F",
"N  c #45251C",
"B  c #4E2D1E",
"V  c #5B261D",
"C  c #572317",
"Z  c #60210F",
"A  c #6A2415",
"S  c #6C251B",
"D  c #662519",
"F  c #73241A",
"G  c #792A1D",
"H  c #772517",
"J  c #663517",
"K  c #4B2C26",
"L  c #472B26",
"P  c #552D29",
"I  c #5E2D2C",
"U  c #5A2B24",
"Y  c #4C3428",
"T  c #483426",
"R  c #5C342D",
"E  c #593925",
"W  c #4D3631",
"Q  c #483834",
"!  c #5B3532",
"~  c #5A3B34",
"^  c #543A36",
"/  c #652926",
"(  c #6D2A26",
")  c #612926",
"_  c #722E24",
"`  c #7C282B",
"'  c #7D2C25",
"]  c #65342C",
"[  c #6D3828",
"{  c #7C342C",
"}  c #793728",
"|  c #663A36",
" . c #7C3A33",
".. c #753A39",
"X. c #2D403E",
"o. c #38423A",
"O. c #4B452D",
"+. c #5E432E",
"@. c #414133",
"#. c #414B33",
"$. c #5A4538",
"%. c #4F533C",
"&. c #51573B",
"*. c #64422B",
"=. c #6B4237",
"-. c #68483D",
";. c #794336",
":. c #74543A",
">. c #68523B",
",. c #3F3D43",
"<. c #403B41",
"1. c #3B4244",
"2. c #424342",
"3. c #43494B",
"4. c #4A4C4E",
"5. c #444A47",
"6. c #465349",
"7. c #545B49",
"8. c #5A5447",
"9. c #4D4D52",
"0. c #4A5B52",
"q. c #575759",
"w. c #625A4D",
"e. c #615D5E",
"r. c #744F44",
"t. c #5B6857",
"y. c #4B6258",
"u. c #796A46",
"i. c #636758",
"p. c #7B725E",
"a. c #5D5E61",
"s. c #5F766E",
"d. c #5F6865",
"f. c #626B65",
"g. c #6E7160",
"h. c #797E68",
"j. c #85291D",
"k. c #8B2A1E",
"l. c #842B21",
"z. c #8B2D23",
"x. c #843124",
"c. c #83342B",
"v. c #8C3528",
"b. c #8A392E",
"n. c #883726",
"m. c #93342A",
"M. c #943A2C",
"N. c #843531",
"B. c #8D3B32",
"V. c #853935",
"C. c #973B36",
"Z. c #8C413B",
"A. c #83493E",
"S. c #884338",
"D. c #9B423B",
"F. c #994738",
"G. c #875439",
"H. c #934E32",
"J. c #9E4942",
"K. c #994845",
"L. c #8E534F",
"P. c #995655",
"I. c #84524D",
"U. c #A54B43",
"Y. c #AB4C44",
"T. c #A94E49",
"R. c #A1534C",
"E. c #A7594C",
"W. c #B15B4C",
"Q. c #B24E50",
"!. c #A75554",
"~. c #B55E58",
"^. c #A9734F",
"/. c #AA675A",
"(. c #BE645C",
"). c #AE7653",
"_. c #B75E62",
"`. c #997F66",
"'. c #AF6E6E",
"]. c #8D6C4D",
"[. c #C1645F",
"{. c #C46765",
"}. c #CB7674",
"|. c #D77D7C",
" X c #768677",
".X c #92825E",
"XX c #868F7C",
"oX c #958575",
"OX c #A18671",
"+X c #A9987A",
"@X c #B3A775",
"#X c #C98E70",
"$X c #CA8F71",
"%X c #CFA87F",
"&X c #858382",
"*X c #93958A",
"=X c #BA9A8D",
"-X c #99A28F",
";X c #93A194",
":X c #AAAC9F",
">X c #DB8085",
",X c #CBA78F",
"<X c #DDAA8D",
"1X c #D3B394",
"2X c #E4B88E",
"3X c #E9AD91",
"4X c #E1BB92",
"5X c #F9BA99",
"6X c #EABEA3",
"7X c #D7C698",
"8X c #E8C294",
"9X c #F8C89C",
"0X c #ECC9A8",
"qX c #FEDDAF",
"wX c #F6D6A3",
"eX c #FFD4B2",
"rX c #FBD9B6",
"tX c #E7D5A5",
/* pixels */
"      o     o . . @ 7 $.[ [ =.| | ~ Y 3 O   o             . o   ",
"  X         . . # K -.=.}  . .L.I.| P ~ Q &                     ",
"            . - j  .V.{ B.b.F.W.}._.P...I ^ 1                   ",
". .     . @ , D B.B.V.D.T.Y.C.m.D._._.!.V./ ~ %                 ",
".     . ; R  .{ n.v.C.D.Q.{.(.D.z.k.Y.[.R.{ V , .               ",
".   . 1 ] !.Z.v Z ' N.` C.{.|.(.z.n k.Y.D.x./ R $   o     o     ",
"    . L I.R.S g g M / b ` _.>X}.V.h H M.M.F.A ) 5     o         ",
"o o . l } V.g j J J [ b b !.}.~._ Z n.M.z.M.B.) W .   o o       ",
"  o . ; C { j [ ^.).).n.v D.~.b.h c x.M.k.k.C.( T & o           ",
"o     . l ] C G.2X9X3XE.v J.W.x.c c H j.k.z.b.( K & o           ",
". .     2 N f :.9XqX%X..k N.T.U.' c x H v.x.S k L &             ",
".       . & 7 +.4X8X].: f ( U.W.B.b h A H x c V Y %             ",
"      o   O 5 +.%X4Xu.; r.u.} F.T.N.g g z h A j Y 3             ",
"      . o o @ E 4X4X.XO.oX=X} n.~.K.h g A h c h P T &     o     ",
"  X     o     T 4XwX@Xu.+X1XA.H Y.U.F Z { F F V./ ! 3   . o o   ",
"            . T 1XqXtX7X0X6X#XH.m.D.A D R.D.' c./ R $   .       ",
"            . T .X0XrXeXeX9X$XH.m.' M C B.K.' v U K @   o       ",
"              > -.OX,X0X<X$XH.n._ M B N U  .l.S ;.~ @ o o o     ",
"          o   X 5 u Y >.:.:.E *.E 7 o.8.$.=.K.Z.I.P . o o       ",
"    o     .         % @.h.].O.e T u 0. Xi.^ :.K.' k @   o       ",
"                    r  X;XXXt.5 w 2.1.s. Xt.E D N./ #         X ",
"                  X 6.;X Xt.6.r 1.3.1.,.y.d.T ] /.P.<           ",
"                  X 6.g.0.6.o.1.t.q.<.a X.o.% : r.'.^ .     X   ",
"                  X o.s 9.f.1.d.&X&Xe.<.= X X   ; <.$   X       ",
"      o       o o o d p 9.a.9.q.XX:X Xo.4       . . . .         ",
"        o o o     O <.s 3.9.,.d p. X7.5 4   X         o         ",
"          o       + 2.t p * 9 5 &.&.o.o.r X           . o       ",
"                    y s d d o.w 8 8 u y e .         o           ",
"                      X t & X y u &.w.^ 3 .     .               ",
"                            X w o.&.8.T O   o     .           o ",
"                      X     o   X X . o   X X                   ",
"        o                 + 9                                   "
};
