/* XPM */
static char *cmlnaHQtcmVtb3ZlYmctcHJldmlldw__[] = {
/* columns rows colors chars-per-pixel */
"32 32 220 2 ",
"   c #020102",
".  c #0B0202",
"X  c #040903",
"o  c #0E0A04",
"O  c #030209",
"+  c #0A040A",
"@  c #080E0A",
"#  c #140001",
"$  c #1B0201",
"%  c #110A06",
"&  c #1A0902",
"*  c #180A0B",
"=  c #1A140E",
"-  c #141309",
";  c #0B0312",
":  c #1B1B13",
">  c #1A1916",
",  c #0A1608",
"<  c #210001",
"1  c #25140A",
"2  c #3C1D0F",
"3  c #2A1C14",
"4  c #2E1C1A",
"5  c #281913",
"6  c #311E1C",
"7  c #1B251A",
"8  c #232318",
"9  c #33231B",
"0  c #3B2819",
"q  c #363E15",
"w  c #1D2A21",
"e  c #242C23",
"r  c #2B2C25",
"t  c #2E2F2A",
"y  c #3A2E22",
"u  c #352925",
"i  c #2D342C",
"p  c #253127",
"a  c #32342D",
"s  c #39332B",
"d  c #343B2C",
"f  c #38382E",
"g  c #323333",
"h  c #3C3B32",
"j  c #38393A",
"k  c #441603",
"l  c #511A0A",
"z  c #5D1A0B",
"x  c #5B140B",
"c  c #491A16",
"v  c #401B13",
"b  c #561D15",
"n  c #621C0D",
"m  c #6C1E0D",
"M  c #65160B",
"N  c #641D13",
"B  c #681C17",
"V  c #5F210C",
"C  c #4B221C",
"Z  c #472819",
"A  c #522211",
"S  c #53241E",
"D  c #5B231D",
"F  c #5A2A18",
"G  c #44321C",
"H  c #61250B",
"J  c #6B2213",
"K  c #62231B",
"L  c #64291C",
"P  c #682415",
"I  c #742414",
"U  c #73241A",
"Y  c #732A1F",
"T  c #7A281C",
"R  c #4C2122",
"E  c #4D2C23",
"W  c #432624",
"Q  c #562A28",
"!  c #493124",
"~  c #46382A",
"^  c #56352A",
"/  c #5F2E31",
"(  c #423B39",
")  c #563B32",
"_  c #632522",
"`  c #622A26",
"'  c #602E2D",
"]  c #7B2423",
"[  c #7C2C22",
"{  c #762F26",
"}  c #6C342D",
"|  c #653323",
" . c #7C3426",
".. c #74332D",
"X. c #7D332E",
"o. c #7B392B",
"O. c #772F32",
"+. c #6A3435",
"@. c #693B36",
"#. c #783733",
"$. c #3F453F",
"%. c #334138",
"&. c #4A4135",
"*. c #44423C",
"=. c #47453B",
"-. c #504438",
";. c #524A3E",
":. c #594537",
">. c #5C543D",
",. c #704D2F",
"<. c #6B4438",
"1. c #7E4339",
"2. c #71463C",
"3. c #666E3F",
"4. c #3A4F45",
"5. c #3D564C",
"6. c #434345",
"7. c #494C42",
"8. c #494847",
"9. c #534C42",
"0. c #5B4641",
"q. c #4C5244",
"w. c #49574B",
"e. c #56524A",
"r. c #525949",
"t. c #494D50",
"y. c #5A4E50",
"u. c #495654",
"i. c #555655",
"p. c #664542",
"a. c #7C4549",
"s. c #645142",
"d. c #625B51",
"f. c #755F52",
"g. c #596340",
"h. c #4D6758",
"j. c #5D635C",
"k. c #566759",
"l. c #7B674F",
"z. c #656559",
"x. c #756356",
"c. c #6F694E",
"v. c #5B6C62",
"b. c #6A7668",
"n. c #696365",
"m. c #81301F",
"M. c #8D2D29",
"N. c #8A2A25",
"B. c #952F2B",
"V. c #8C342D",
"C. c #8C392E",
"Z. c #853729",
"A. c #93362E",
"S. c #833732",
"D. c #8D3432",
"F. c #8B3C35",
"G. c #863B36",
"H. c #943A33",
"J. c #9F3E35",
"K. c #9A3C3B",
"L. c #953433",
"P. c #874435",
"I. c #9C4539",
"U. c #8B4F34",
"Y. c #A3493D",
"T. c #884549",
"R. c #9B4542",
"E. c #944F49",
"W. c #974A47",
"Q. c #8E544D",
"!. c #A44D45",
"~. c #A94F45",
"^. c #B04F46",
"/. c #AC554D",
"(. c #A4554F",
"). c #AA5957",
"_. c #B55957",
"`. c #BC5F58",
"'. c #9A664A",
"]. c #876D58",
"[. c #876D52",
"{. c #A66348",
"}. c #A16D57",
"|. c #BB645D",
" X c #AF755F",
".X c #B27D5B",
"XX c #947D67",
"oX c #B16663",
"OX c #C3665E",
"+X c #CC706B",
"@X c #C17168",
"#X c #DC7E79",
"$X c #C37477",
"%X c #7E855B",
"&X c #798371",
"*X c #7B8C7C",
"=X c #6A8572",
"-X c #878F7E",
";X c #A78C71",
":X c #B1916E",
">X c #C9916C",
",X c #CA9B7D",
"<X c #C2AB7F",
"1X c #DBA17B",
"2X c #8A8F82",
"3X c #BC9C83",
"4X c #C79D83",
"5X c #E08081",
"6X c #C7AA8C",
"7X c #C9AF94",
"8X c #D3B38C",
"9X c #E6A88C",
"0X c #E0B696",
"qX c #F2B69A",
"wX c #ECBCA5",
"eX c #EBC39C",
"rX c #E6C9AB",
"tX c #F9CDA9",
"yX c #F8D5AC",
"uX c #FBD7B5",
/* pixels */
"              O .           O O O   O X   O       . .     X     ",
"            O O     . . 8 8 6 6 6 6 6 5 * . .       +   X       ",
"+ .               . # $ D +.a.a.+.#.#.} ^ u 5 .   . O O O . O O ",
".                 $ C } E.|. XoXI.I.C.C.P.} ) ^ &     O O   ; O ",
"O       X       $ Q G.(.@X|.R.I.D.I.J.A.M.F.S.} E #   O     O O ",
"  O           & c O.(.|.!.V.N.A.|.OX~.J.B.K.C.{ #.<.$ .         ",
"      .     o 0 L S.^.Y.[ I A.OX#X_.V.C.A.T J Y E.Q.@.$   X     ",
"O O . .     # c ..J.Y.N.m J Y.#X5X/.] P T m z z G.oXT.Q #     X ",
"    .     # C Q D.J.B.L.T m I.+X+XI.H V P V H k B E.T.Q #       ",
"        . . C X.K.N.B.L.{ M I ~.OXF.z 1.'.'.U.A B T.+.<       . ",
"          & c X.L.N.M.N.] N M H.).P.P .X9X9X4X` _ +.R . +   .   ",
"    X     9 C K ] M.D.U N B T !.).{ H }.qXuXwXF D R *           ",
"  X       8 ) A B T { N x P H._.I.b 2 A ,XtX6XZ v 1       O   X ",
"      O   3 ^ A z M m z x S./.Y.X.Q.2 1 :X0X4XZ $ .   X O O     ",
"    O   # W Q K n U U x B W./. .2.6Xg.q :X0X3XG .       O   .   ",
"  O     # R _ S.Y P. .M [ /.Y.J '.8X%X3.6XtX;XG . X     O O     ",
"O O     5 / B D.W.P. .H T Y.Z.I.>XeX8X<XuXuX-XZ             O   ",
"O     % / ` ] ] G.K l l H m.m.{.1XyXyXuXuXrX3.0           O     ",
"      9 Q #.L.R...b 2 2 F | ,.P.:X1XeXyX7X].~ .                 ",
"+   o ! D S.D.F.Q Z ~ &.;.:.2.<.,.[.[.l.~ 0           O         ",
"    * ! F { P D E =.j.b.v.u.b.z.>.l.g.1 o X o O O   O           ",
"  o 8 E { G.L ^ 9.q.u.u.5.4.h.v.%X-X&X%.X X   O O O   O         ",
"X   0 S R.(.} ^ 9.$.6.i.t.j j 4.h.=X*Xw.p   X                   ",
"    1 Q O.W.<.! h u.n.i.6.g j 6.$.5.h.%.w           .       O   ",
"    . u ' +.p.) ;.*X-Xj.$.g 8.n.b.r.7.g r t X     .             ",
"      % W p.;.*.d &X-X-Xk.i ( y.n.d.h = > h h                   ",
". .   O # * * f $.r.z.k.%.p f 9.x.x.) 8 5 r >                   ",
". .     +     f q.;.8 - , 7 a 9.].XXf.0 u %       O             ",
"X         .   X i i p e r 7.( y :.s.x.-.s t   O   O             ",
"        .   X     @ a *.*.r . ( s ~ ;.9.-.t 4                   ",
"  X     .         O O + . O     f 9.e.e.e.8.=                 O ",
"  X   .         O O O O         > > - : r 3 . . .           O   "
};
