/* XPM */
static char *cmlnaHQ_[] = {
/* columns rows colors chars-per-pixel */
"32 32 219 2 ",
"   c #1B1014",
".  c #0A1819",
"X  c #3E161E",
"o  c #251218",
"O  c #372312",
"+  c #000D2A",
"@  c #061C25",
"#  c #071838",
"$  c #181A37",
"%  c #141B23",
"&  c #2A1324",
"*  c #2D1A2E",
"=  c #0E2936",
"-  c #05253D",
";  c #09263D",
":  c #042C3C",
">  c #0A2736",
",  c #172737",
"<  c #03333F",
"1  c #07252D",
"2  c #292839",
"3  c #2A3237",
"4  c #2B2933",
"5  c #5C391D",
"6  c #4C2A24",
"7  c #412323",
"8  c #513921",
"9  c #45373D",
"0  c #603637",
"q  c #733015",
"w  c #384937",
"e  c #71451E",
"r  c #504122",
"t  c #484339",
"y  c #754829",
"u  c #6C5429",
"i  c #705B3E",
"p  c #516236",
"a  c #7E6232",
"s  c #032C44",
"d  c #0A2C44",
"f  c #0F274B",
"g  c #042C4B",
"h  c #0B2D4A",
"j  c #092645",
"k  c #162848",
"l  c #033143",
"z  c #0A3245",
"x  c #04334C",
"c  c #0D324B",
"v  c #033B4D",
"b  c #0A384D",
"n  c #153146",
"m  c #032F50",
"M  c #0B2D52",
"N  c #0B2E58",
"B  c #112F52",
"V  c #182A52",
"C  c #043453",
"Z  c #0B3554",
"A  c #053B54",
"S  c #0B3A54",
"D  c #02355B",
"F  c #0C365B",
"G  c #043B5C",
"H  c #0C3B5C",
"J  c #1A3654",
"K  c #143A54",
"L  c #113C5C",
"P  c #143657",
"I  c #312E4D",
"U  c #243444",
"Y  c #29334C",
"T  c #202C52",
"R  c #293957",
"E  c #383D55",
"W  c #043C62",
"Q  c #0B3D63",
"!  c #033D6C",
"~  c #0B3D6A",
"^  c #073766",
"/  c #103661",
"(  c #123D64",
")  c #113B6B",
"_  c #073E76",
"`  c #473C4A",
"'  c #563D4F",
"]  c #054254",
"[  c #01425C",
"{  c #0A415E",
"}  c #094A59",
"|  c #17465B",
" . c #3E454D",
".. c #2B515E",
"X. c #044363",
"o. c #0B4363",
"O. c #014A64",
"+. c #04446B",
"@. c #0C436B",
"#. c #034A6B",
"$. c #0B4A6C",
"%. c #0E4965",
"&. c #134265",
"*. c #12436D",
"=. c #144C6B",
"-. c #184C62",
";. c #17536F",
":. c #054573",
">. c #0B4473",
",. c #044B73",
"<. c #0B4B74",
"1. c #044B7B",
"2. c #0C4C7B",
"3. c #064578",
"4. c #114672",
"5. c #114B74",
"6. c #1D4C75",
"7. c #17487C",
"8. c #055475",
"9. c #0D5074",
"0. c #04527D",
"q. c #0B537C",
"w. c #0C587E",
"e. c #11527D",
"r. c #165279",
"t. c #234564",
"y. c #3E4E65",
"u. c #424745",
"i. c #584C46",
"p. c #4E5148",
"a. c #4E525B",
"s. c #554851",
"d. c #70595F",
"f. c #6B4254",
"g. c #474D67",
"h. c #5C4D6E",
"j. c #505969",
"k. c #535E72",
"l. c #5E5F7D",
"z. c #52687A",
"x. c #696978",
"c. c #9F6F1B",
"v. c #895A29",
"b. c #9A5E28",
"n. c #875E3E",
"m. c #964621",
"M. c #9F632A",
"N. c #8B6C38",
"B. c #856B2C",
"V. c #AE6E2E",
"C. c #A4782C",
"Z. c #B07A3A",
"A. c #90674F",
"S. c #D8A13D",
"D. c #EBB23E",
"F. c #EAB529",
"G. c #B18A6D",
"H. c #044D83",
"J. c #0C4F80",
"K. c #0A4B8B",
"L. c #114C81",
"P. c #025482",
"I. c #0B5485",
"U. c #0C5A84",
"Y. c #04558B",
"T. c #0B548B",
"R. c #045E8D",
"E. c #0B5B8A",
"W. c #075A86",
"Q. c #145385",
"!. c #125B8A",
"~. c #125A86",
"^. c #0B5B93",
"/. c #0A5B95",
"(. c #155D92",
"). c #0C638A",
"_. c #07628E",
"`. c #066493",
"'. c #0D6292",
"]. c #0B639C",
"[. c #0B699C",
"{. c #076998",
"}. c #14659B",
"|. c #11709C",
" X c #005BA1",
".X c #0D66A2",
"XX c #0C6CA4",
"oX c #066AA7",
"OX c #1464A9",
"+X c #156DA8",
"@X c #0978A8",
"#X c #126DB3",
"$X c #0D7BB4",
"%X c #0B78B9",
"&X c #147AB5",
"*X c #117CBB",
"=X c #1676B5",
"-X c #0F6DAB",
";X c #576389",
":X c #636083",
">X c #6A708A",
",X c #0D7ECB",
"<X c #087BC4",
"1X c #0983B8",
"2X c #6E8096",
"3X c #0E83C4",
"4X c #0C83CC",
"5X c #0285C6",
"6X c #0382D1",
"7X c #1886D5",
"8X c #8C858A",
"9X c #9C918D",
"0X c #8A8F93",
"qX c #AE9181",
"wX c #BE9A84",
"eX c #BDA392",
"rX c #8B8EAD",
"tX c #9196A7",
"yX c #A5A0BE",
/* pixels */
"k # d n n m g j = s g g : = G [ ~ W A A W K s M c x C h d x x d ",
"1 g G %.o.G C : c W Q G b S !..X].`.{.`.oX`.[ +.0.1.#.H A @.$.G ",
": X.q.,.$.o.G x Z +.%.{ H Q OX,X3X*X3X&X4X%X#.q.Y.H.4.L W 2.I.! ",
"x ,.J.+.Q Q W G D X.o.{ L D oX<X<X%X,X%X7X*X&.r.2.>.&.L +.^.^.! ",
"x <.I.2.5.5.@.H @.q.5.>.>.W +X1X3X1X5X3X7X$Xo.9.q.,.9.9.T.XX'.+.",
"z $.K.T.!.U.@.H $.I.Q.I.2.+.'.|.1X|.$X@X=X].[ ,.P.W.U.I.E.^.w.H ",
"j H >.:.0.P.#.S G :.~ 3.,.X._ ) 6.$.$.*.1.:.&.+.1.T.2.W G @.H h ",
"j Z F Q ,.0.1.&.Z F N W $.-.( R J J , n C G | Q @.2.$.s : g C g ",
"m H @.@.@.T./.w.L ^ Q $.=.t.z.z.k.j.h.g.| *.#.>.@.;.Q.W : S ~ h ",
"C [ 9.5.G +.I.q.} X.#.] L g.yXtX8X0X:X>Xz.t.{ ! @.&.3.1.G H F < ",
"v X.I.<.C D >.:.m G G s Y :XrXtX0Xx.` x.k.R s Q b D ! 8.o.F Z l ",
"C X.2.@.X.+.7.>.P n : - I :X:X>Xj.` f.'  .K s ( { @.+.O.A H F g ",
"W <.>.@.~.'.(.~.2.C l : 2 E g.t s.s.d.9 J ! o.w.]..X].2.C S ] z ",
"#.U.5.Q ).`.'.).R._ W b d k ` i G.eX9Xa.6.T.e.+X$X5X%XOX_ <.#.b ",
"$.W.5.F <.#.=.,.#.@.) @.F 2 X 6 N.wXqXi.{ ).3.OX$X1X5X#X3.,.,.Z ",
"o.0.>.f Z c K Z D Z P D | u V.y 0 A.A.u ..0.2.-X*X@X$XXX[ X.~ s ",
"c G A c c c b G ] N @.x , N.S.M.y C.Z.B.w F $.-X4X<X3XXX#.G W Z ",
"- C A Z G D +.Y.8.&.-.A k p.B.u C.F.D.v.8 3 [ -X*X&X=X^.,.I.I.C ",
"d H o.%.+.! L..XR.3.U.+.f , @ ; 3 v.C.q m.v., ! O.O.o.H Q !.!.Q ",
"- C G A A F H ~ Q $.P.-.r a O @ $ 4 u.3 t u.B 7.o.A S L Q :.:.x ",
"d X.W A b S Z N B @. X6.5 b.X + # # f >.).U.+.#.K.L.L.2.,.P.,.l ",
"h I.0.H F X.o.F x [ XXe.4 7   @ f V T *./.^.@.4.~.Q.!.E.w.I.<.B ",
"{ }.[.$.+.3.<.+.G ) }.3.$ & o . # 4 9 E t.} v } [ [ +.#.$.:.! M ",
"W XX].#.X.>.o.{ [ @.'.8., & * $ # 6 M.V.B.p 5.0.$.2.P.1.*.#.#.v ",
"G {.{.#.Q ) &.X.~ Q '.).[ f * % = 9 v.e u.t.2.<.,.q.w.1.3.2.<.G ",
"^ .X[.+.Q ) ~ o.A %.}.!.X./ V j ; Y u.U L +.@.>.+.@.*.4.w.9.H - ",
"Q [.[.X.G ~ @.o.v A Q.L.G H P g = c o.W @.H S K L H P ) #.X.s > ",
"x E.`.O.G @.o.{ H m _ >.x < : : l x C C x z z Z N C D o.+.W x s ",
"s I.E.$.X.<.&.( L Z H.2.x : : S $.o.[ S S o.+.P.[ #.E.XX-X+XE.G ",
"C W.^.<.,.1.2.:.&.[ R.I.{ H Z ~ :.@.Q &.@.:.H.T.#.,.-X4X6X3XXXQ ",
"v 1.0.o.X.,.X.W H ] 8.@.S o.L F H L Z H H H ~ >.{ $.(.oXoX{.I.S ",
"1 D H d g A C c g : D B j x s d s C g b d : s x M x S o.+.W S s "
};
