/* XPM */
static char *Y2hlc3QtcmVtb3ZlYmctcHJldmlldyslMjgxJTI5[] = {
/* columns rows colors chars-per-pixel */
"32 32 216 2 ",
"   c #020101",
".  c #0B0100",
"X  c #010902",
"o  c #02030A",
"O  c #0B0109",
"+  c #030A0B",
"@  c #120100",
"#  c #1C0100",
"$  c #1C0C02",
"%  c #100B08",
"&  c #1D0A0C",
"*  c #1F1201",
"=  c #250200",
"-  c #200F08",
";  c #290C04",
":  c #251301",
">  c #2B1504",
",  c #24120A",
"<  c #2D1C0D",
"1  c #281909",
"2  c #321409",
"3  c #341E0E",
"4  c #381809",
"5  c #3C1B04",
"6  c #2E1D13",
"7  c #361B12",
"8  c #391E1A",
"9  c #2D210A",
"0  c #33210D",
"q  c #3C2304",
"w  c #332312",
"e  c #3C221A",
"r  c #3B291A",
"t  c #382316",
"y  c #3E3120",
"u  c #382924",
"i  c #472400",
"p  c #432D02",
"a  c #492A04",
"s  c #48240C",
"d  c #49280C",
"f  c #522700",
"g  c #552B00",
"h  c #522A0E",
"j  c #572A0E",
"k  c #5D3505",
"l  c #5C3A02",
"z  c #563009",
"x  c #523200",
"c  c #4D2613",
"v  c #4D2A13",
"b  c #422C1D",
"n  c #4C2E1B",
"m  c #472716",
"M  c #532C14",
"N  c #522C1A",
"B  c #5A2D1B",
"V  c #5B2F12",
"C  c #4F3216",
"Z  c #4E311D",
"A  c #44361A",
"S  c #533115",
"D  c #5A3112",
"F  c #53311A",
"G  c #5A341B",
"H  c #5E3A1C",
"J  c #54391E",
"K  c #633D01",
"L  c #63390E",
"P  c #6A3D07",
"I  c #623C13",
"U  c #6C3E16",
"Y  c #633D1C",
"T  c #613518",
"R  c #733F14",
"E  c #773F1C",
"W  c #442C21",
"Q  c #4E2D22",
"!  c #542C21",
"~  c #4D3123",
"^  c #4F3528",
"/  c #513524",
"(  c #553925",
")  c #5B3C22",
"_  c #533529",
"`  c #5C362B",
"'  c #54392B",
"]  c #5A3C2D",
"[  c #5A3721",
"{  c #5A3E32",
"}  c #603721",
"|  c #633D24",
" . c #613C2E",
".. c #6D3F29",
"X. c #6E3F30",
"o. c #5F4200",
"O. c #494216",
"+. c #63430C",
"@. c #6C450D",
"#. c #6E4505",
"$. c #704300",
"%. c #724901",
"&. c #794A00",
"*. c #74420A",
"=. c #7A4C0B",
"-. c #79460B",
";. c #6F5000",
":. c #7C5200",
">. c #79510A",
",. c #735D0E",
"<. c #6E4212",
"1. c #6E441A",
"2. c #744312",
"3. c #784515",
"4. c #73431C",
"5. c #7A441D",
"6. c #784914",
"7. c #725C1C",
"8. c #77631C",
"9. c #5D473A",
"0. c #664123",
"q. c #6D4225",
"w. c #6C442C",
"e. c #664228",
"r. c #734424",
"t. c #7A4423",
"y. c #754925",
"u. c #7A4C24",
"i. c #73442C",
"p. c #79442D",
"a. c #754A2B",
"s. c #7B4C2B",
"d. c #7D5129",
"f. c #6E4531",
"g. c #724431",
"h. c #794631",
"j. c #724B35",
"k. c #7E4F3F",
"l. c #754E36",
"z. c #6F5034",
"x. c #725132",
"c. c #7C5232",
"v. c #7D5239",
"b. c #786520",
"n. c #7A6826",
"m. c #614B40",
"M. c #7B5D45",
"N. c #844F03",
"B. c #8A5303",
"V. c #8B5B03",
"C. c #855808",
"Z. c #935F09",
"A. c #846600",
"S. c #8A680F",
"D. c #9E6B02",
"F. c #996C0C",
"G. c #966805",
"H. c #987A00",
"J. c #9D7607",
"K. c #8A6314",
"L. c #976616",
"P. c #A06C00",
"I. c #A87E0E",
"U. c #A97716",
"Y. c #805127",
"T. c #83522E",
"R. c #814D35",
"E. c #865631",
"W. c #855B33",
"Q. c #895F36",
"!. c #845A39",
"~. c #8A5D3B",
"^. c #896F22",
"/. c #92742B",
"(. c #825946",
"). c #A98208",
"_. c #AA851C",
"`. c #A98224",
"'. c #A78A36",
"]. c #D3AE1D",
"[. c #D2AB28",
"{. c #CCA53D",
"}. c #DAB133",
"|. c #D6AB3A",
" X c #E1B72F",
".X c #F1BC2E",
"XX c #EDBA35",
"oX c #F2BD3B",
"OX c #F3C20E",
"+X c #F9CB08",
"@X c #F8CD1E",
"#X c #FBD510",
"$X c #FAD50B",
"%X c #EDC42A",
"&X c #F4C924",
"*X c #F4CA2D",
"=X c #FFD022",
"-X c #F3D42E",
";X c #EACC3D",
":X c #F7CE3E",
">X c #F7C831",
",X c #FDD334",
"<X c #F7D839",
"1X c #EBBF42",
"2X c #E6BB52",
"3X c #E3C346",
"4X c #EEC349",
"5X c #ECC846",
"6X c #F3C948",
"7X c #FFDA47",
"8X c #F6D14A",
"9X c #FAD64D",
"0X c #F8D64A",
"qX c #FFDC5C",
"wX c #FFE340",
"eX c #FFE058",
/* pixels */
"o     . . . @ @ . @ . . @ . @ @ @ @ @ . @ . @ @ . @ . . %     X ",
"o X   . . W { ' _ ^ ' _ ] ( J ) ( ( ( ] / ' ' / / ] W . . .     ",
"    . @ 4 j.W.Q.~.~.!.!.W.W.E.E.T.Q.T.E.W.W.Q.E.W.!.j.2 . .     ",
"    . ; (.s.2.3.3.4.4.U 2.=.N.B.B.C.-.*.4.4.R E 2.R s.(.= .     ",
"    w M.q.t.E t.t.r.r.s.%.:.:X*X,X X&.6.r.r.Y.E t.5.u.q.M.<   X ",
"  . 7 x.r.t.t.t.t.t.r.<.L.}.@X$X#X@X|.C.4.a...Y.t.t.5.1.x.: . O ",
". * ~ x.y.5.5.5.t.p.t.-.U.eX@X+X+X@XqXZ.3.t.p.t.5.5.r.r.x.r $ . ",
". y 9.' | | I Y ..) 0.k S.{.[.].].[.{.=.I | | | Y Y 1.0.( m.u . ",
". . . . . . . . . . . . . . @ . @ @ . . . . . . . . . . . . O . ",
". . .                           X           o     .     o O O O ",
". .     o   o             .                                 . . ",
".       X   o o o o         .         .   o o o X o   X       . ",
"        + o   o     o                       X o o   o + o       ",
"      o o .                                       . o o o o     ",
"X       . * 1 : : : , , , , : : : : , , : * : : : , & . .       ",
"      . @ e / S C Z ~ ~ ~ ~ F S F Z Q ~ ~ Z C S N ' e . .     X ",
"o   . # b b v z N N n Z C v v v M M v n m v N N M Z n r . . X X ",
"+   $ 7 / Z S d c N n v v F M F F v G v F n B c v v m Z e @   + ",
"  . 7 N N v v v N N v N M s C s d v v c F v M c N F M M ! 7 .   ",
"  t  .B j D V G S h V h k +.o.o.o.o.+.k z D M G M V V h B ` 6   ",
". ' M...5.Y.y.a.s.s.c.6.J.9X;X0X0X;X6XF.=.u.s.s.d.u.u.s.u.v.r . ",
". ~ R.R.s.s.c.s.y.d.v.@.I.wX-XA.H.-X0XJ.=.d.d.y.y.y.a.s.u.c.y . ",
". r _ ! ` n [ | | } Q i A.;X6X5 x 0X3X;.p G | ..Y e.]  .G ) w . ",
". : # = _ m v M D M = # l 3X4XP :.6X2Xp # s M M F v Q _ v 4 < . ",
". ( l.g.w.l...r.4.1.l.g K 4XoXXX.X1X2X&.2.r.t.r.r.i.f.w.q.x.A . ",
"@ a <.2.<.1.s.a.d.4.a.4.&.F.P.P.P.P.L.-.u.r.4.u.a.a.4.@.#.@.q @ ",
"@ 7._.).`.#.I G H H 0.e.1.k L L L L T | | ) H Y | Y =._.).`.o.@ ",
"@ '.9X>X4X%.g G M S N v h M c c c B ! N N M G M F f V.5X>X9X/.@ ",
"# U.*XOX>XV.2.i.p.h.g.i.r.r...q.E ..h.p.a.i.h.g.h.*.D.>XOX,XS.# ",
"# '.0X-X1XV.U g.X.f.w.f.i.q.w.w.w.q.i.g.w.j.X.X.f.<.G.8X*X8X^.# ",
"  O.8.,.d.p 2 8 0 0 9 9 9 6 6 3 0 < 6 6 1 w 3 7 8 > p 8.,.n.A   ",
"X   . .   . . O . .       . . . . . .     . . . @ . . . .     X "
};
