/* XPM */
static char *_116c51316064311a29158e5416c2eeeMIfysCytai7r5kem[] = {
/* columns rows colors chars-per-pixel */
"32 32 196 2 ",
"   c #020101",
".  c #0C0200",
"X  c #070803",
"o  c #0C0800",
"O  c #0C0B09",
"+  c #130500",
"@  c #1A0600",
"#  c #130A00",
"$  c #1A0C01",
"%  c #110D0A",
"&  c #1D1302",
"*  c #15100E",
"=  c #1B130C",
"-  c #1F190B",
";  c #171614",
":  c #191511",
">  c #1E1913",
",  c #220C00",
"<  c #241304",
"1  c #2D1B06",
"2  c #24160A",
"3  c #29170B",
"4  c #251A0D",
"5  c #2C1C0C",
"6  c #311706",
"7  c #321E05",
"8  c #321E0C",
"9  c #281710",
"0  c #241C13",
"q  c #2B1E12",
"w  c #342007",
"e  c #35220D",
"r  c #3B240C",
"t  c #2D2215",
"y  c #22221A",
"u  c #2B241A",
"i  c #2E281C",
"p  c #332213",
"a  c #3A2613",
"s  c #3C2916",
"d  c #32261A",
"f  c #38271C",
"g  c #352A1C",
"h  c #3A2A1A",
"j  c #332B21",
"k  c #3F2D21",
"l  c #353125",
"z  c #3E3324",
"x  c #313129",
"c  c #3D342A",
"v  c #44260C",
"b  c #462A0F",
"n  c #4A2B0E",
"m  c #432C15",
"M  c #492E13",
"N  c #432C1A",
"B  c #492F18",
"V  c #4D3114",
"C  c #43311D",
"Z  c #4D341B",
"A  c #523314",
"S  c #5D3B15",
"D  c #52361B",
"F  c #54391D",
"G  c #5C3C1C",
"H  c #633C16",
"J  c #623E1A",
"K  c #6B3B13",
"L  c #412E21",
"P  c #423323",
"I  c #4C3522",
"U  c #443820",
"Y  c #4E3B24",
"T  c #443229",
"R  c #453A2B",
"E  c #4D3C2D",
"W  c #543723",
"Q  c #543B24",
"!  c #5A3D22",
"~  c #533D29",
"^  c #593E29",
"/  c #4B3F31",
"(  c #613E20",
")  c #5C401B",
"_  c #6B4117",
"`  c #65431D",
"'  c #6B441C",
"]  c #6C481F",
"[  c #72451A",
"{  c #764A1D",
"}  c #7B4A1D",
"|  c #564126",
" . c #5C4225",
".. c #54422B",
"X. c #5C432B",
"o. c #4E4033",
"O. c #544333",
"+. c #5B4533",
"@. c #5D4A32",
"#. c #554B3C",
"$. c #5B4B3A",
"%. c #634423",
"&. c #6A4622",
"*. c #644823",
"=. c #6C4A25",
"-. c #63462A",
";. c #684728",
":. c #64492A",
">. c #6B4B2C",
",. c #734C24",
"<. c #7E4F21",
"1. c #7A4E25",
"2. c #794C23",
"3. c #724E2A",
"4. c #784E28",
"5. c #6C522F",
"6. c #755026",
"7. c #765126",
"8. c #7B5023",
"9. c #7B5026",
"0. c #7C5226",
"q. c #72502B",
"w. c #72522F",
"e. c #74512C",
"r. c #7B5129",
"t. c #7D532B",
"y. c #7A542D",
"u. c #7B532A",
"i. c #76592F",
"p. c #7E592E",
"a. c #614730",
"s. c #604B30",
"d. c #644B33",
"f. c #6A4F34",
"g. c #694D33",
"h. c #654F38",
"j. c #6E5233",
"k. c #64523D",
"l. c #6A553C",
"z. c #775633",
"x. c #725535",
"c. c #735334",
"v. c #7A5733",
"b. c #745833",
"n. c #7F5831",
"m. c #7C5B35",
"M. c #76573B",
"N. c #765738",
"B. c #70583E",
"V. c #74593C",
"C. c #785B3B",
"Z. c #785B3D",
"A. c #564E43",
"S. c #5C4E43",
"D. c #5E5142",
"F. c #625243",
"G. c #695643",
"H. c #6D5945",
"J. c #62544A",
"K. c #6B5B4C",
"L. c #725C45",
"P. c #785A40",
"I. c #785E45",
"U. c #725E4B",
"Y. c #6B5D54",
"T. c #725F50",
"R. c #766146",
"E. c #74634D",
"W. c #7A644F",
"Q. c #7C684F",
"!. c #6B6255",
"~. c #6F655B",
"^. c #756352",
"/. c #7A6852",
"(. c #77655B",
"). c #796658",
"_. c #7C6C5B",
"`. c #835323",
"'. c #835025",
"]. c #855026",
"[. c #825325",
"{. c #885327",
"}. c #81562B",
"|. c #83552C",
" X c #88552A",
".X c #81582C",
"XX c #8C5D2F",
"oX c #855C32",
"OX c #8C603B",
"+X c #826C57",
"@X c #826E59",
"#X c #897157",
"$X c #87715D",
"%X c #887358",
"&X c #817464",
"*X c #8A796F",
/* pixels */
"                    % 0 = 2 3 $ 2 5 q t 0 = .                 X ",
"        X     X = * - 0 4 q d 5 f s p p f q q 0 #     X         ",
"            O : 0 2 q a f g P f -. .F Q Q Z C N p < + . .       ",
"          % 0 0 8 8 B Q Q Q E Z x.=.:.=.>.>.:.Q Q h t .         ",
"        ; 0 0 p V A G >. .) | ) x.>.*.&.q.q.b.=.X.Q P d .       ",
".     * 0 q s D ` K K 4.` F s b b.=.] ' 7.6.u.=.>.-.Q O.j       ",
"    % q 3 p ! >.2._ [ 8.` S Z M i.&.` _ 0.{ 8.<.1.=.*.@.$.2     ",
"  . = 4 p Z ;.4.8._ ] 6.*.F F V C.=.` ' .X{ `.`.8._ &.:.| U #   ",
"  ; 4 2 Z ! =.n.4.&.' 3.:.F X.Z P.3.%.=.}.} } {.'.1.J >.^ ..a . ",
"  : 2 a %.,.2.}.t.&.G x.:.Z B.Z f.M.( =.XX2.} '. XK K >.;.W ~ @ ",
". 2 5 B =.2.2.[.t.,.J j.X.G  .V M.-.*.4.oX4.[  X[.2.K >.;.^ +.8 ",
"2 3 r G t.{ } XX2.' J f.:.G A D j.G &.>.n..X{ .X2.,.J ;.-.W ^ I ",
"q 3 m ! n.t.0.XX4.=.&.;.*.D x.M m.i.` ] p.0.7.oX.X[ =.q.;.G ^ ! ",
"q p T X.x.q.=.5.&.) F -.X.Q +.m j.j.*.*.=.q.3.e.=.) ) :.^  .Y a.",
": 0 c D.K./.Q.%X#XR.E.+XE.D.o.E F.+.H.$X@X+XQ.$X$XE.K.E.F.o.R $.",
". u j j h T.G.....G._.@.O.#.~.t q K.D...O.^.^.O.O.F._.z z g #.- ",
"  t < $ $ r 6 @ , , N @ @ < P # @ h p @ @ e w @ @ < s $ $ & z & ",
"4 h E X.>.-.d.g.X.^ X.-.X.Y P P F.s.| :.g.X.-.>.:.G  .@.@.Y h $.",
"5 z X.:.v.=.q.z.>.-.*.q.:.F s.B L.j.-.5.N.3.4.v.q.*.%.g.X.) X.l.",
"e Z ! =.4.t.p.i.,.J &.v.;.n P.Z N.q.=.,.v.y.r.v.e.H =.3. .A C.C.",
"3 m F =.7.{ 7.0.] S ] e.J A Q Z c.3.&.,.4.4.2.4.2.J &.3.) A A 5.",
"5 s ! *.7.] 6.7.` ' ] =.G ! Q Z c.e.&.' ,.1.4.4.2.&.K =.` S F :.",
"5 h D G &.,.q.q.' ) S ` G V s.Z c.>.S J =.J ,.4.,.S S *.` V >.x.",
"3 h m G G ) G ` F V G F V B ~ m X. .A B G ! ( J J M ! F V Z Q -.",
"> u z ..h.g.G.U.Y.H.$.U.F.O.o.l $.X.O.G.U.l.l.L.L.H.$.k.O.E z O.",
"X x c g P ).(.S.J.Y.*XS.J.#.!.i d J.!.$.F._._.S.S.K._.o.R c A.g ",
"  y - $ @ f 9 . . @ f . + & l o o j u . . 4 q . + $ g # + = l o ",
": y d C I L L T T T k L f f d q R g p T ~ P C E P C f P g h g j ",
"2 p I D ^ A W ^ Z Z B D ^ m B 8 Q Y Z Q Q W D D F D B Z Z m s ~ ",
"2 p m v n n M M M m v v v e I 8 Q Z m m B b M Z m v B v m m B Z ",
"> 2 5 a m v 7 M r e r r 8 8 f 3 f f e a m s s a a e e p e e a a ",
"% : 4 1 e 7 7 e 8 1 1 8 8 4 = 2 p p 1 8 e 8 8 8 8 8 5 5 1 2 2 q "
};
