/* XPM */
static char *b32db4da0ad6402e94e0c3b499102248wvDn07inAHGNaqYm[] = {
/* columns rows colors chars-per-pixel */
"32 32 191 2 ",
"   c #020102",
".  c #0A0301",
"X  c #060800",
"o  c #0D0A03",
"O  c #010209",
"+  c #0E0D0B",
"@  c #140500",
"#  c #1C0100",
"$  c #140C04",
"%  c #1B0D02",
"&  c #120D0A",
"*  c #1A0D0B",
"=  c #141206",
"-  c #1B1106",
";  c #1F1A06",
":  c #16120C",
">  c #1C140C",
",  c #1D190E",
"<  c #000311",
"1  c #151314",
"2  c #1B1513",
"3  c #1D1813",
"4  c gray11",
"5  c #200F08",
"6  c #231303",
"7  c #23160A",
"8  c #241B0D",
"9  c #2C1C0D",
"0  c #321E0A",
"q  c #221711",
"w  c #231B14",
"e  c #2B1E14",
"r  c #241E19",
"t  c #2A1F1D",
"y  c #301F15",
"u  c #1F201A",
"i  c #2B230E",
"p  c #362207",
"a  c #392107",
"s  c #33240D",
"d  c #3D250E",
"f  c #3E290E",
"g  c #2C2215",
"h  c #2F2815",
"j  c #25211A",
"k  c #2B241C",
"l  c #332314",
"z  c #3A2513",
"x  c #352815",
"c  c #3D2A14",
"v  c #32241A",
"b  c #3A2718",
"n  c #34291C",
"m  c #3B2B1B",
"M  c #2B2320",
"N  c #2D2A24",
"B  c #2B2B29",
"V  c #362923",
"C  c #3B2E25",
"Z  c #372C28",
"A  c #3B3123",
"S  c #3C342C",
"D  c #41250D",
"F  c #432C0D",
"G  c #512E0E",
"H  c #51360F",
"J  c #412612",
"K  c #422B14",
"L  c #482C14",
"P  c #442D1A",
"I  c #4B2F1A",
"U  c #453211",
"Y  c #4D3113",
"T  c #44311C",
"R  c #4C341B",
"E  c #4D3A1F",
"W  c #523414",
"Q  c #553816",
"!  c #5D3915",
"~  c #53341A",
"^  c #59371B",
"/  c #533A1B",
"(  c #5B3B1B",
")  c #603F16",
"_  c #613E1B",
"`  c #473221",
"'  c #453121",
"]  c #4B3422",
"[  c #4B3723",
"{  c #473825",
"}  c #4C3923",
"|  c #413529",
" . c #463A2E",
".. c #4D3D2B",
"X. c #553B22",
"o. c #533E21",
"O. c #533A24",
"+. c #593D25",
"@. c #533E2A",
"#. c #4C3E33",
"$. c #543E30",
"%. c #603E23",
"&. c #64421F",
"*. c #6A441F",
"=. c #6B4A1F",
"-. c #704B1E",
";. c #74491E",
":. c #574021",
">. c #5A4027",
",. c #5B4224",
"<. c #55402B",
"1. c #5F472B",
"2. c #5B422B",
"3. c #4D4134",
"4. c #464239",
"5. c #4D443D",
"6. c #554334",
"7. c #5D4532",
"8. c #5A4832",
"9. c #51463B",
"0. c #58443B",
"q. c #5B4A3B",
"w. c #644622",
"e. c #664524",
"r. c #644322",
"t. c #6D4622",
"y. c #664927",
"u. c #6B4A26",
"i. c #6E4D26",
"p. c #6C4924",
"a. c #604228",
"s. c #62442A",
"d. c #644529",
"f. c #63472D",
"g. c #6A4729",
"h. c #644A2E",
"j. c #694B29",
"k. c #694F2C",
"l. c #6C4C2C",
"z. c #704920",
"x. c #724D23",
"c. c #744C24",
"v. c #784B22",
"b. c #744E2A",
"n. c #7B4F28",
"m. c #6A502D",
"M. c #765124",
"N. c #795326",
"B. c #7B5127",
"V. c #705029",
"C. c #73552F",
"Z. c #75552F",
"A. c #75512D",
"S. c #79542A",
"D. c #7D5428",
"F. c #78572C",
"G. c #7C562F",
"H. c #644833",
"J. c #6B4E33",
"K. c #674E38",
"L. c #62503A",
"P. c #6A533A",
"I. c #735732",
"U. c #745434",
"Y. c #785630",
"T. c #7B5632",
"R. c #7C5C35",
"E. c #70553A",
"W. c #7A5B3A",
"Q. c #4A4742",
"!. c #564D46",
"~. c #5D4F42",
"^. c #645343",
"/. c #6E5443",
"(. c #6D5943",
"). c #675A4A",
"_. c #745C44",
"`. c #6B604E",
"'. c #75614F",
"]. c #7D644E",
"[. c #766553",
"{. c #7B6651",
"}. c #796856",
"|. c #797067",
" X c #81572F",
".X c #82613E",
"XX c #866343",
"oX c #897666",
"OX c #827668",
"+X c #8C7968",
"@X c #847464",
/* pixels */
"  X       O       @ $ $   X           X 1 + .         O O     . ",
"              + & & $ $     O X       o 2 2 * & X               ",
"          X + : > - - $               O q r e g 7 % . .         ",
"        X , , > 7 7 q >               o r v b T K b 6 .     O O ",
"O     + 2 8 9 9 n l g q .             @ g b K Y Y ( o.6 . . O < ",
"O   . 7 9 l K K T b n q .     .       . g l c ~ Q w.m.:.6   O O ",
"    * 8 l R O.R P v v w .           . . j g c ~ / i.i.I./ @ .   ",
"  o 6 0 L a.d.R ] b k q               . g h b ] ^ b.S.p.m.L . . ",
"  q 7 J ( u.u.Y Y x n j         O     o j n m R ( -.N.=.Z.f.% . ",
"@ q l X.w.F.) H U s n 3       O   O     k n c R G x.N.M.Z.h.' @ ",
"* 7 b +.j.R.p.W U i h :     O O O O     j h m T ( b.S.i.XXd.$.5 ",
"j 7 [ (.h.y.( L E n n =               X 3 k m ..E o.C.W.W.H.%.D ",
"8 i T L.P.{./.H.h w t &                 2 t 2 | q.(._.P.E.f.K.%.",
"; x `.@XoX$.e 0.7 % r &               . 2 w @ l 6.l ^.+XoX{.2.P.",
"j 4.k S 3.. 9 m m e k w               & t y b c 0 6 % ~.e 9.OX3.",
"3 k % l ' 8.<.} { n n r           O     n l T / E f.@.T 9 - ~.% ",
"* n H.P.Y.b.( Q T l g 7 .         O   X j 9 D R W &.U.U.E.f.R a ",
"l ` l.A.N.B._ L T x g q .             X e s K W H =.c.G.T.&.l.l.",
"c R b. Xn.-.) G T s g 2               . e l c Y G g.A.G.T.i.W.XX",
"c Y g.v.v.n.%.I P g n q               $ g g l T Y r.Y.b.b.c.t.b.",
"p F w.A.b.t.^ P m e k :             O o 3 w l T } +.J.l.b.t.t. X",
"s c +.j.g.%.I ` C t M &                 3 N k A m R a.J.g._ g.A.",
"k A } E 2.K.6.#.Z t B &                 4 B r A q.8.7.2.O.~ K._.",
"u N q.[.'...m 9.& . 3 $                 1 +   k  .m ^.}._.0...7.",
"B Q.V ..q.. % g g 3 3 :               . 2 w w l 8 % 6 ).n #.|.5.",
"j S @ 6 d [ A l g w i =           .   . > w e l b ' P e 6 & !.2 ",
". 9 ` 7.} O.c x g 8 7 = .     O       . > q 9 s z R +.@.@.` l 6 ",
"l l O.R R U c 9 8 > - @     O O O O   O & > 7 9 0 L R L O.O.T O.",
"l l P D z P e 7 * $ . .       O O O   O O o $ - 6 J L a L D +.>.",
"l l s z z 0 - % o                   O       . $ 6 7 9 P d z ~ 2.",
"= , w - $ .                                         % % - g g V ",
"o X   .   .   O O               .   .                     . . r "
};
