/* XPM */
static char *_999dff1dbbf4667ed178e57aa95be15XGmlxBz3wcz5IqFa[] = {
/* columns rows colors chars-per-pixel */
"32 32 186 2 ",
"   c #8B8972",
".  c #85836E",
"X  c #88856F",
"o  c #898670",
"O  c #898770",
"+  c #7F7C68",
"@  c #403E38",
"#  c #3A3834",
"$  c #7A7865",
"%  c #84826D",
"&  c #797765",
"*  c #46443D",
"=  c #7D7B67",
"-  c #756F5D",
";  c #827F6A",
":  c #85836D",
">  c #7B7966",
",  c #48453E",
"<  c #6D6757",
"1  c #87836D",
"2  c #88866F",
"3  c #84826C",
"4  c #85826D",
"5  c #797764",
"6  c #3A3934",
"7  c #625F52",
"8  c #716C5A",
"9  c #766F5C",
"0  c #756F5C",
"q  c #746E5C",
"w  c #645E50",
"e  c #3E3C37",
"r  c #5A574B",
"t  c #736D5B",
"y  c #766F5D",
"u  c #736C5B",
"i  c #5F5B4F",
"p  c #59564B",
"a  c #535046",
"s  c #3E3D38",
"d  c #716F5E",
"f  c #5C584D",
"g  c #5E5B4E",
"h  c #6F6A59",
"j  c #635F51",
"k  c #615D50",
"l  c #696353",
"z  c #716B59",
"x  c #726C5B",
"c  c #5F5C4F",
"v  c #5B584D",
"b  c #535047",
"n  c #343330",
"m  c #6E6756",
"M  c #726B59",
"N  c #555147",
"B  c #6A6454",
"V  c #6B6555",
"C  c #585449",
"Z  c #4D4A42",
"A  c #353431",
"S  c #413F39",
"D  c #565248",
"F  c #716A58",
"G  c #6F6857",
"H  c #6E6857",
"J  c #6B6454",
"K  c #575349",
"L  c #33322F",
"P  c #85826C",
"I  c #726C5A",
"U  c #716A59",
"Y  c #5B574C",
"T  c #686253",
"R  c #4F4C43",
"E  c #3B3934",
"W  c #656051",
"Q  c #6C6655",
"!  c #6C6555",
"~  c #504D44",
"^  c #78725F",
"/  c #736C5A",
"(  c #5F5A4D",
")  c #545147",
"_  c #3F3D38",
"`  c #797664",
"'  c #86836D",
"]  c #756E5C",
"[  c #514E45",
"{  c #3F3E38",
"}  c #555248",
"|  c #4C4A42",
" . c #625E51",
".. c #686252",
"X. c #726B5A",
"o. c #514F46",
"O. c #47443C",
"+. c #78715F",
"@. c #363431",
"#. c #3F3D37",
"$. c #423F39",
"%. c #86826D",
"&. c #504C44",
"*. c #645F51",
"=. c #575449",
"-. c #736C59",
";. c #58554A",
":. c #7B7865",
">. c #58544A",
",. c #6D6756",
"<. c #706958",
"1. c #49463F",
"2. c #605C50",
"3. c #59554A",
"4. c #49473F",
"5. c #676152",
"6. c #676253",
"7. c #5C574C",
"8. c #524F45",
"9. c #4E4B43",
"0. c #3B3A35",
"q. c #7A7965",
"w. c #5D594E",
"e. c #4B4840",
"r. c #2F2E2C",
"t. c #4C4941",
"y. c #4C4A41",
"u. c #31302E",
"i. c #393834",
"p. c #353430",
"a. c #2E2D2C",
"s. c #45443D",
"d. c #403F39",
"f. c #3E3D37",
"g. c #3C3A35",
"h. c #43413B",
"j. c #3C3B36",
"k. c #31302D",
"l. c #7F7E69",
"z. c #6F6958",
"x. c #7C7965",
"c. c #7E7C68",
"v. c #747261",
"b. c #787663",
"n. c #7E7B67",
"m. c #757462",
"M. c #7C7A66",
"N. c #777562",
"B. c #6B6656",
"V. c #787563",
"C. c #7B7965",
"Z. c #636052",
"A. c #746D5A",
"S. c #76705D",
"D. c #605C4F",
"F. c #5A574C",
"G. c #535147",
"H. c #605E51",
"J. c #5A564B",
"K. c #5C594D",
"L. c #353330",
"P. c #6E6757",
"I. c #4B4941",
"U. c #514D44",
"Y. c #5D594D",
"T. c #716B5A",
"R. c #6F6957",
"E. c #5B574B",
"W. c #797562",
"Q. c #45433C",
"!. c #7E7B68",
"~. c #7B7864",
"^. c #736B59",
"/. c #7C7967",
"(. c #6A6354",
"). c #645F50",
"_. c #4A4740",
"`. c #4D4B42",
"'. c #363531",
"]. c #32312E",
"[. c #47443E",
"{. c #393733",
"}. c #34322F",
"|. c #312F2D",
" X c #302F2D",
".X c white",
/* pixels */
"  . X o O + @ # $ o o X % % & * = - ; X : X > , < 1 2 % 3 4 5 6 ",
": 7 8 9 0 q w e r t y u i p a s d f g h j h k l z 0 x c v p b n ",
"% i m M M M m N B M M M V C Z A S D V F G F G M M M F H J K Z L ",
"P I U M M M H Y V M M M H T R E W Q F M M M M M M M M M M ! ~ L ",
"^ / M M M M M ! ( G M V C ) Z _ ` j G M M M M M M M M M M V ~ L ",
"' ] M M M M M M G M G C [ ) Z { = t F M M M M M M M M M G C Z L ",
"X I F M M M M M M M G C C T ~ _ = t M M M M M M M M M M H } | L ",
":  .G M M M M M M M M H H V ~ { > c ..F M M M M M M M M V N | L ",
"P X.U M M M M M M M M M G C | e d o.O.Q M M M M M M M G C [ Z L ",
"+./ M M M M M M M M M M G C Z @.#.$.W U M M M M M M M G C N Z L ",
"%.] M M H H M M z H H M U T &.E *.! U M M M M M M M M M H T ~ L ",
"o 0 M V =.C H -.H C C Q G ;.Z _ :.t U M M M M M G G z M G >.Z L ",
"X x m C [ ) ,.<.m N [ C T ) 1._ $ 2.H M M M G V C 3.G M V ) 4.L ",
": c 5.N [ N 6.7.T N [ 8.) 9.@.0.q.w.B H H V C ) [ N V ! C e.@.r.",
"& b R Z t.Z R Z R Z y.t.y.1.u.i.d ) R ~ ~ ~ | t.t.Z ~ ~ 4.p.a.r.",
"s.d.f.g.s { _ { f.i.f.{ { _ 6 L h.d.s j.s _ { { { { _ { _ 0.i.k.",
"l.> :.z.x.c.= $ v.v b.n.$ q.d h.m.M.N.B.V.n.c.= C.= = $ $ > d i.",
". Z.I A.9 S.t D.i ,.0 t D.F.G.d.> H.f J.D.t S.t j t t 2.K.F.) L.",
"% i m M M M F m P.M M M J ) I.{ $ i B m H F M F G F U H J K Z L ",
"X I U M M M M M M M M M G 3.| { = t M M M M M M M M M M M V ~ L ",
"%.] M M M M M M M M M M M V ~ f.:.x U M M M M M M M M M M H U.L ",
"^ / M M M M M M M M M M M H ~ g.B.Y.H M M M M M M M M M M H U.L ",
"P X.U M M M M M M M M M M H ~ s V.i P.M M M M M M M M M M V ~ L ",
".  .G M M M M M M M M M M H ~ f.:.u U M M M M M M M M M ! C Z L ",
"; T.U M M M M M M M M M M V ~ g.h A.M M M M M M M M M G C [ Z L ",
">.H M M M M M M M M M M R.E.Z f.W.] M M M M M M M M M G 3.N Z L ",
"Q.! M M M M M M M M M M z T R g.z.A.M M M R.M M M M M M G V ~ L ",
"!.z M M M M M M M M M M ! C Z s ~.x M ^.m 3.m M M M M M M ! ~ L ",
": i J G M M G M M M G V C 8.| { /.j V R.(.$.5.G M M M M ! C Z L ",
"% p ) >.! V E.V G V C N [ 9.1._ !.< =.3.).e Z C V H H V C [ _.L ",
"5 b t.Z ~ ~ `.~ U.~ Z Z _.'.].6 d =.Z Z R [.{._.~ U.U.~ Z _.@.r.",
"6 n L L L L L L L L L }.L r.r.|.i.n L L L L  XL L L L L L L r.r."
};
